# MagicaVoxel @ Ephtracy

# group
g exit skraldespand

# material
mtllib exit skraldespand.mtl
usemtl palette

# normals
vn -1 0 0
vn 1 0 0
vn 0 0 1
vn 0 0 -1
vn 0 -1 0
vn 0 1 0

# texcoords
vt 0.962891 0.5
vt 0.970703 0.5
vt 0.978516 0.5
vt 0.986328 0.5
vt 0.990234 0.5
vt 0.994141 0.5

# verts
v -20.5 1 19.5
v -20.5 1 -19.5
v -20.5 39 19.5
v -20.5 39 -19.5
v -19.5 0 19.5
v -19.5 0 -19.5
v -19.5 1 20.5
v -19.5 1 19.5
v -19.5 1 -19.5
v -19.5 1 -20.5
v -19.5 39 20.5
v -19.5 39 19.5
v -19.5 39 -19.5
v -19.5 39 -20.5
v -19.5 40 19.5
v -19.5 40 -19.5
v 9.5 39 10.5
v 9.5 39 -10.5
v 9.5 40 10.5
v 9.5 40 -10.5
v 17.5 2 18.5
v 17.5 2 -18.5
v 17.5 39 18.5
v 17.5 39 -18.5
v -18.5 2 18.5
v -18.5 2 -18.5
v -18.5 39 18.5
v -18.5 39 -18.5
v -10.5 39 10.5
v -10.5 39 -10.5
v -10.5 40 10.5
v -10.5 40 -10.5
v 18.5 0 19.5
v 18.5 0 -19.5
v 18.5 1 20.5
v 18.5 1 19.5
v 18.5 1 -19.5
v 18.5 1 -20.5
v 18.5 39 20.5
v 18.5 39 19.5
v 18.5 39 -19.5
v 18.5 39 -20.5
v 18.5 40 19.5
v 18.5 40 -19.5
v 19.5 1 19.5
v 19.5 1 -19.5
v 19.5 16 14.5
v 19.5 16 -14.5
v 19.5 17 15.5
v 19.5 17 14.5
v 19.5 17 9.5
v 19.5 17 -3.5
v 19.5 17 -14.5
v 19.5 17 -15.5
v 19.5 18 16.5
v 19.5 18 15.5
v 19.5 18 14.5
v 19.5 18 11.5
v 19.5 18 9.5
v 19.5 18 7.5
v 19.5 18 6.5
v 19.5 18 4.5
v 19.5 18 1.5
v 19.5 18 -0.5
v 19.5 18 -1.5
v 19.5 18 -3.5
v 19.5 18 -6.5
v 19.5 18 -9.5
v 19.5 18 -10.5
v 19.5 18 -14.5
v 19.5 18 -15.5
v 19.5 18 -16.5
v 19.5 19 12.5
v 19.5 19 11.5
v 19.5 19 7.5
v 19.5 19 6.5
v 19.5 19 5.5
v 19.5 19 0.5
v 19.5 19 -0.5
v 19.5 19 -1.5
v 19.5 19 -3.5
v 19.5 19 -4.5
v 19.5 19 -6.5
v 19.5 19 -7.5
v 19.5 20 7.5
v 19.5 20 5.5
v 19.5 20 4.5
v 19.5 20 3.5
v 19.5 20 2.5
v 19.5 20 1.5
v 19.5 20 0.5
v 19.5 20 -7.5
v 19.5 20 -8.5
v 19.5 21 11.5
v 19.5 21 7.5
v 19.5 21 5.5
v 19.5 21 4.5
v 19.5 21 3.5
v 19.5 21 2.5
v 19.5 21 1.5
v 19.5 21 -8.5
v 19.5 21 -9.5
v 19.5 22 11.5
v 19.5 22 7.5
v 19.5 22 4.5
v 19.5 22 3.5
v 19.5 22 2.5
v 19.5 22 1.5
v 19.5 23 5.5
v 19.5 23 4.5
v 19.5 23 3.5
v 19.5 23 2.5
v 19.5 23 1.5
v 19.5 23 0.5
v 19.5 23 -10.5
v 19.5 23 -13.5
v 19.5 24 6.5
v 19.5 24 5.5
v 19.5 24 2.5
v 19.5 24 1.5
v 19.5 24 0.5
v 19.5 24 -0.5
v 19.5 25 12.5
v 19.5 25 11.5
v 19.5 25 7.5
v 19.5 25 5.5
v 19.5 25 4.5
v 19.5 25 1.5
v 19.5 25 0.5
v 19.5 25 -1.5
v 19.5 25 -3.5
v 19.5 25 -4.5
v 19.5 25 -6.5
v 19.5 25 -7.5
v 19.5 25 -9.5
v 19.5 25 -10.5
v 19.5 25 -12.5
v 19.5 25 -13.5
v 19.5 25 -14.5
v 19.5 26 11.5
v 19.5 26 7.5
v 19.5 26 6.5
v 19.5 26 5.5
v 19.5 26 0.5
v 19.5 26 -0.5
v 19.5 26 -1.5
v 19.5 26 -6.5
v 19.5 26 -7.5
v 19.5 26 -12.5
v 19.5 26 -14.5
v 19.5 26 -15.5
v 19.5 27 16.5
v 19.5 27 15.5
v 19.5 27 14.5
v 19.5 27 -1.5
v 19.5 27 -2.5
v 19.5 27 -14.5
v 19.5 27 -15.5
v 19.5 27 -16.5
v 19.5 28 15.5
v 19.5 28 14.5
v 19.5 28 -2.5
v 19.5 28 -14.5
v 19.5 28 -15.5
v 19.5 29 14.5
v 19.5 29 -14.5
v 19.5 39 19.5
v 19.5 39 -19.5
v -19.5 1 20.5
v -19.5 39 20.5
v 18.5 1 20.5
v 18.5 39 20.5
v -20.5 1 19.5
v -20.5 39 19.5
v -19.5 0 19.5
v -19.5 1 19.5
v -19.5 39 19.5
v -19.5 40 19.5
v 18.5 0 19.5
v 18.5 1 19.5
v 18.5 39 19.5
v 18.5 40 19.5
v 19.5 1 19.5
v 19.5 39 19.5
v -10.5 39 -10.5
v -10.5 40 -10.5
v 9.5 39 -10.5
v 9.5 40 -10.5
v -18.5 2 -18.5
v -18.5 39 -18.5
v 17.5 2 -18.5
v 17.5 39 -18.5
v -18.5 2 18.5
v -18.5 39 18.5
v 17.5 2 18.5
v 17.5 39 18.5
v -10.5 39 10.5
v -10.5 40 10.5
v 9.5 39 10.5
v 9.5 40 10.5
v -20.5 1 -19.5
v -20.5 39 -19.5
v -19.5 0 -19.5
v -19.5 1 -19.5
v -19.5 39 -19.5
v -19.5 40 -19.5
v 18.5 0 -19.5
v 18.5 1 -19.5
v 18.5 39 -19.5
v 18.5 40 -19.5
v 19.5 1 -19.5
v 19.5 39 -19.5
v -19.5 1 -20.5
v -19.5 39 -20.5
v 18.5 1 -20.5
v 18.5 39 -20.5
v -19.5 0 19.5
v 18.5 0 19.5
v -19.5 0 -19.5
v 18.5 0 -19.5
v -19.5 1 20.5
v 18.5 1 20.5
v -20.5 1 19.5
v -19.5 1 19.5
v 18.5 1 19.5
v 19.5 1 19.5
v -20.5 1 -19.5
v -19.5 1 -19.5
v 18.5 1 -19.5
v 19.5 1 -19.5
v -19.5 1 -20.5
v 18.5 1 -20.5
v -18.5 39 18.5
v 17.5 39 18.5
v -10.5 39 10.5
v 9.5 39 10.5
v -10.5 39 -10.5
v 9.5 39 -10.5
v -18.5 39 -18.5
v 17.5 39 -18.5
v -18.5 2 18.5
v 17.5 2 18.5
v -18.5 2 -18.5
v 17.5 2 -18.5
v -19.5 39 20.5
v 18.5 39 20.5
v -20.5 39 19.5
v -19.5 39 19.5
v 18.5 39 19.5
v 19.5 39 19.5
v -20.5 39 -19.5
v -19.5 39 -19.5
v 18.5 39 -19.5
v 19.5 39 -19.5
v -19.5 39 -20.5
v 18.5 39 -20.5
v -19.5 40 19.5
v 18.5 40 19.5
v -10.5 40 10.5
v 9.5 40 10.5
v -10.5 40 -10.5
v 9.5 40 -10.5
v -19.5 40 -19.5
v 18.5 40 -19.5

# faces
f 3/2/1 2/2/1 1/2/1
f 4/2/1 2/2/1 3/2/1
f 8/2/1 6/2/1 5/2/1
f 9/2/1 6/2/1 8/2/1
f 11/2/1 8/2/1 7/2/1
f 12/2/1 8/2/1 11/2/1
f 13/2/1 10/2/1 9/2/1
f 14/2/1 10/2/1 13/2/1
f 15/2/1 13/2/1 12/2/1
f 16/2/1 13/2/1 15/2/1
f 19/2/1 18/2/1 17/2/1
f 20/2/1 18/2/1 19/2/1
f 23/3/1 22/3/1 21/3/1
f 24/3/1 22/3/1 23/3/1
f 25/3/2 26/3/2 27/3/2
f 27/3/2 26/3/2 28/3/2
f 29/2/2 30/2/2 31/2/2
f 31/2/2 30/2/2 32/2/2
f 33/2/2 34/2/2 36/2/2
f 36/2/2 34/2/2 37/2/2
f 35/2/2 36/2/2 39/2/2
f 39/2/2 36/2/2 40/2/2
f 37/2/2 38/2/2 41/2/2
f 41/2/2 38/2/2 42/2/2
f 40/2/2 41/2/2 43/2/2
f 43/2/2 41/2/2 44/2/2
f 45/2/2 46/2/2 47/2/2
f 47/2/2 46/2/2 48/2/2
f 45/2/2 47/2/2 49/2/2
f 47/4/2 48/4/2 50/4/2
f 49/2/2 47/2/2 50/2/2
f 50/4/2 48/4/2 51/4/2
f 51/4/2 48/4/2 52/4/2
f 48/2/2 46/2/2 53/2/2
f 52/4/2 48/4/2 53/4/2
f 53/2/2 46/2/2 54/2/2
f 45/2/2 49/2/2 55/2/2
f 49/4/2 50/4/2 56/4/2
f 55/2/2 49/2/2 56/2/2
f 50/5/2 51/5/2 57/5/2
f 56/4/2 50/4/2 57/4/2
f 57/5/2 51/5/2 58/5/2
f 51/6/2 52/6/2 59/6/2
f 58/5/2 51/5/2 59/5/2
f 59/6/2 52/6/2 60/6/2
f 60/6/2 52/6/2 61/6/2
f 61/6/2 52/6/2 62/6/2
f 62/6/2 52/6/2 63/6/2
f 63/6/2 52/6/2 64/6/2
f 64/6/2 52/6/2 65/6/2
f 52/1/2 53/1/2 66/1/2
f 65/6/2 52/6/2 66/6/2
f 66/1/2 53/1/2 67/1/2
f 67/1/2 53/1/2 68/1/2
f 68/1/2 53/1/2 69/1/2
f 53/4/2 54/4/2 70/4/2
f 69/1/2 53/1/2 70/1/2
f 54/2/2 46/2/2 71/2/2
f 70/4/2 54/4/2 71/4/2
f 71/2/2 46/2/2 72/2/2
f 57/5/2 58/5/2 73/5/2
f 56/5/2 57/5/2 73/5/2
f 58/4/2 59/4/2 74/4/2
f 73/5/2 58/5/2 74/5/2
f 59/4/2 60/4/2 74/4/2
f 60/6/2 61/6/2 75/6/2
f 74/4/2 60/4/2 75/4/2
f 61/4/2 62/4/2 76/4/2
f 75/6/2 61/6/2 76/6/2
f 76/4/2 62/4/2 77/4/2
f 63/4/2 64/4/2 78/4/2
f 64/6/2 65/6/2 79/6/2
f 78/4/2 64/4/2 79/4/2
f 65/4/2 66/4/2 80/4/2
f 79/6/2 65/6/2 80/6/2
f 66/4/2 67/4/2 80/4/2
f 80/4/2 67/4/2 81/4/2
f 81/4/2 67/4/2 82/4/2
f 67/1/2 68/1/2 83/1/2
f 82/4/2 67/4/2 83/4/2
f 83/1/2 68/1/2 84/1/2
f 74/5/2 75/5/2 85/5/2
f 76/6/2 77/6/2 85/6/2
f 75/6/2 76/6/2 85/6/2
f 77/4/2 62/4/2 86/4/2
f 85/6/2 77/6/2 86/6/2
f 62/6/2 63/6/2 87/6/2
f 86/4/2 62/4/2 87/4/2
f 87/6/2 63/6/2 88/6/2
f 88/6/2 63/6/2 89/6/2
f 63/4/2 78/4/2 90/4/2
f 89/6/2 63/6/2 90/6/2
f 78/6/2 79/6/2 91/6/2
f 90/4/2 78/4/2 91/4/2
f 79/6/2 80/6/2 91/6/2
f 80/6/2 81/6/2 91/6/2
f 84/1/2 68/1/2 92/1/2
f 83/6/2 84/6/2 92/6/2
f 82/6/2 83/6/2 92/6/2
f 92/1/2 68/1/2 93/1/2
f 73/4/2 74/4/2 94/4/2
f 85/5/2 86/5/2 94/5/2
f 74/5/2 85/5/2 94/5/2
f 94/5/2 86/5/2 95/5/2
f 86/6/2 87/6/2 96/6/2
f 95/5/2 86/5/2 96/5/2
f 87/4/2 88/4/2 97/4/2
f 96/6/2 87/6/2 97/6/2
f 88/6/2 89/6/2 98/6/2
f 97/4/2 88/4/2 98/4/2
f 89/4/2 90/4/2 99/4/2
f 98/6/2 89/6/2 99/6/2
f 90/6/2 91/6/2 100/6/2
f 99/4/2 90/4/2 100/4/2
f 93/1/2 68/1/2 101/1/2
f 92/6/2 93/6/2 101/6/2
f 68/4/2 69/4/2 102/4/2
f 101/1/2 68/1/2 102/1/2
f 94/4/2 95/4/2 103/4/2
f 73/4/2 94/4/2 103/4/2
f 96/5/2 97/5/2 104/5/2
f 103/4/2 95/4/2 104/4/2
f 97/5/2 98/5/2 104/5/2
f 95/5/2 96/5/2 104/5/2
f 104/5/2 98/5/2 105/5/2
f 98/4/2 99/4/2 106/4/2
f 105/5/2 98/5/2 106/5/2
f 99/6/2 100/6/2 107/6/2
f 106/4/2 99/4/2 107/4/2
f 100/6/2 91/6/2 108/6/2
f 107/6/2 100/6/2 108/6/2
f 104/5/2 105/5/2 109/5/2
f 103/5/2 104/5/2 109/5/2
f 105/4/2 106/4/2 110/4/2
f 109/5/2 105/5/2 110/5/2
f 106/6/2 107/6/2 111/6/2
f 110/4/2 106/4/2 111/4/2
f 107/4/2 108/4/2 112/4/2
f 111/6/2 107/6/2 112/6/2
f 108/6/2 91/6/2 113/6/2
f 112/4/2 108/4/2 113/4/2
f 91/6/2 81/6/2 114/6/2
f 113/6/2 91/6/2 114/6/2
f 69/1/2 70/1/2 115/1/2
f 70/1/2 71/1/2 115/1/2
f 102/4/2 69/4/2 115/4/2
f 115/1/2 71/1/2 116/1/2
f 103/5/2 109/5/2 117/5/2
f 109/4/2 110/4/2 118/4/2
f 117/5/2 109/5/2 118/5/2
f 112/6/2 113/6/2 119/6/2
f 111/5/2 112/5/2 119/5/2
f 110/5/2 111/5/2 119/5/2
f 113/4/2 114/4/2 120/4/2
f 119/6/2 113/6/2 120/6/2
f 114/6/2 81/6/2 121/6/2
f 120/4/2 114/4/2 121/4/2
f 121/6/2 81/6/2 122/6/2
f 73/4/2 103/4/2 123/4/2
f 56/5/2 73/5/2 123/5/2
f 103/5/2 117/5/2 124/5/2
f 123/4/2 103/4/2 124/4/2
f 124/5/2 117/5/2 125/5/2
f 118/4/2 110/4/2 126/4/2
f 117/4/2 118/4/2 126/4/2
f 119/5/2 120/5/2 127/5/2
f 126/4/2 110/4/2 127/4/2
f 110/5/2 119/5/2 127/5/2
f 121/4/2 122/4/2 128/4/2
f 127/5/2 120/5/2 128/5/2
f 120/4/2 121/4/2 128/4/2
f 128/4/2 122/4/2 129/4/2
f 122/6/2 81/6/2 130/6/2
f 81/4/2 82/4/2 131/4/2
f 130/6/2 81/6/2 131/6/2
f 92/6/2 101/6/2 132/6/2
f 131/4/2 82/4/2 132/4/2
f 82/6/2 92/6/2 132/6/2
f 101/6/2 102/6/2 132/6/2
f 132/6/2 102/6/2 133/6/2
f 133/6/2 102/6/2 134/6/2
f 102/4/2 115/4/2 135/4/2
f 134/6/2 102/6/2 135/6/2
f 115/6/2 116/6/2 136/6/2
f 135/4/2 115/4/2 136/4/2
f 136/6/2 116/6/2 137/6/2
f 116/1/2 71/1/2 138/1/2
f 137/6/2 116/6/2 138/6/2
f 138/1/2 71/1/2 139/1/2
f 123/5/2 124/5/2 140/5/2
f 124/4/2 125/4/2 140/4/2
f 125/5/2 117/5/2 141/5/2
f 140/4/2 125/4/2 141/4/2
f 117/4/2 126/4/2 142/4/2
f 141/5/2 117/5/2 142/5/2
f 126/5/2 127/5/2 143/5/2
f 142/4/2 126/4/2 143/4/2
f 128/5/2 129/5/2 143/5/2
f 127/5/2 128/5/2 143/5/2
f 129/4/2 122/4/2 144/4/2
f 143/5/2 129/5/2 144/5/2
f 122/6/2 130/6/2 145/6/2
f 144/4/2 122/4/2 145/4/2
f 130/4/2 131/4/2 146/4/2
f 145/6/2 130/6/2 146/6/2
f 131/4/2 132/4/2 146/4/2
f 132/4/2 133/4/2 146/4/2
f 133/6/2 134/6/2 147/6/2
f 146/4/2 133/4/2 147/4/2
f 136/4/2 137/4/2 148/4/2
f 147/6/2 134/6/2 148/6/2
f 135/4/2 136/4/2 148/4/2
f 134/4/2 135/4/2 148/4/2
f 137/6/2 138/6/2 149/6/2
f 148/4/2 137/4/2 149/4/2
f 138/6/2 139/6/2 149/6/2
f 139/1/2 71/1/2 150/1/2
f 149/6/2 139/6/2 150/6/2
f 71/4/2 72/4/2 151/4/2
f 150/1/2 71/1/2 151/1/2
f 45/2/2 55/2/2 152/2/2
f 55/4/2 56/4/2 152/4/2
f 140/5/2 141/5/2 153/5/2
f 152/4/2 56/4/2 153/4/2
f 142/5/2 143/5/2 153/5/2
f 143/5/2 144/5/2 153/5/2
f 145/5/2 146/5/2 153/5/2
f 144/5/2 145/5/2 153/5/2
f 141/5/2 142/5/2 153/5/2
f 123/5/2 140/5/2 153/5/2
f 56/5/2 123/5/2 153/5/2
f 153/5/2 146/5/2 154/5/2
f 150/6/2 151/6/2 155/6/2
f 154/5/2 146/5/2 155/5/2
f 147/6/2 148/6/2 155/6/2
f 146/6/2 147/6/2 155/6/2
f 148/6/2 149/6/2 155/6/2
f 149/6/2 150/6/2 155/6/2
f 155/6/2 151/6/2 156/6/2
f 156/6/2 151/6/2 157/6/2
f 151/4/2 72/4/2 158/4/2
f 157/6/2 151/6/2 158/6/2
f 72/2/2 46/2/2 159/2/2
f 158/4/2 72/4/2 159/4/2
f 153/4/2 154/4/2 160/4/2
f 152/2/2 153/2/2 160/2/2
f 154/5/2 155/5/2 161/5/2
f 160/4/2 154/4/2 161/4/2
f 155/5/2 156/5/2 161/5/2
f 156/6/2 157/6/2 162/6/2
f 161/5/2 156/5/2 162/5/2
f 157/4/2 158/4/2 163/4/2
f 162/6/2 157/6/2 163/6/2
f 158/2/2 159/2/2 164/2/2
f 163/4/2 158/4/2 164/4/2
f 161/4/2 162/4/2 165/4/2
f 160/2/2 161/2/2 165/2/2
f 162/4/2 163/4/2 165/4/2
f 163/2/2 164/2/2 166/2/2
f 165/4/2 163/4/2 166/4/2
f 45/2/2 152/2/2 167/2/2
f 160/2/2 165/2/2 167/2/2
f 165/2/2 166/2/2 167/2/2
f 152/2/2 160/2/2 167/2/2
f 164/2/2 159/2/2 168/2/2
f 167/2/2 166/2/2 168/2/2
f 166/2/2 164/2/2 168/2/2
f 159/2/2 46/2/2 168/2/2
f 171/2/3 170/2/3 169/2/3
f 172/2/3 170/2/3 171/2/3
f 176/2/3 174/2/3 173/2/3
f 177/2/3 174/2/3 176/2/3
f 179/2/3 176/2/3 175/2/3
f 180/2/3 176/2/3 179/2/3
f 181/2/3 178/2/3 177/2/3
f 182/2/3 178/2/3 181/2/3
f 183/2/3 181/2/3 180/2/3
f 184/2/3 181/2/3 183/2/3
f 187/2/3 186/2/3 185/2/3
f 188/2/3 186/2/3 187/2/3
f 191/3/3 190/3/3 189/3/3
f 192/3/3 190/3/3 191/3/3
f 193/3/4 194/3/4 195/3/4
f 195/3/4 194/3/4 196/3/4
f 197/2/4 198/2/4 199/2/4
f 199/2/4 198/2/4 200/2/4
f 201/2/4 202/2/4 204/2/4
f 204/2/4 202/2/4 205/2/4
f 203/2/4 204/2/4 207/2/4
f 207/2/4 204/2/4 208/2/4
f 205/2/4 206/2/4 209/2/4
f 209/2/4 206/2/4 210/2/4
f 208/2/4 209/2/4 211/2/4
f 211/2/4 209/2/4 212/2/4
f 213/2/4 214/2/4 215/2/4
f 215/2/4 214/2/4 216/2/4
f 219/2/5 218/2/5 217/2/5
f 220/2/5 218/2/5 219/2/5
f 224/2/5 222/2/5 221/2/5
f 225/2/5 222/2/5 224/2/5
f 227/2/5 224/2/5 223/2/5
f 228/2/5 224/2/5 227/2/5
f 229/2/5 226/2/5 225/2/5
f 230/2/5 226/2/5 229/2/5
f 231/2/5 229/2/5 228/2/5
f 232/2/5 229/2/5 231/2/5
f 235/2/5 234/2/5 233/2/5
f 236/2/5 234/2/5 235/2/5
f 237/2/5 235/2/5 233/2/5
f 238/2/5 234/2/5 236/2/5
f 239/2/5 237/2/5 233/2/5
f 239/2/5 238/2/5 237/2/5
f 240/2/5 234/2/5 238/2/5
f 240/2/5 238/2/5 239/2/5
f 241/3/6 242/3/6 243/3/6
f 243/3/6 242/3/6 244/3/6
f 245/2/6 246/2/6 248/2/6
f 248/2/6 246/2/6 249/2/6
f 247/2/6 248/2/6 251/2/6
f 251/2/6 248/2/6 252/2/6
f 249/2/6 250/2/6 253/2/6
f 253/2/6 250/2/6 254/2/6
f 252/2/6 253/2/6 255/2/6
f 255/2/6 253/2/6 256/2/6
f 257/2/6 258/2/6 259/2/6
f 259/2/6 258/2/6 260/2/6
f 257/2/6 259/2/6 261/2/6
f 260/2/6 258/2/6 262/2/6
f 257/2/6 261/2/6 263/2/6
f 261/2/6 262/2/6 263/2/6
f 262/2/6 258/2/6 264/2/6
f 263/2/6 262/2/6 264/2/6
