# MagicaVoxel @ Ephtracy

# group
g start skraldespand

# material
mtllib start skraldespand.mtl
usemtl palette

# normals
vn -1 0 0
vn 1 0 0
vn 0 0 1
vn 0 0 -1
vn 0 -1 0
vn 0 1 0

# texcoords
vt 0.962891 0.5
vt 0.970703 0.5
vt 0.978516 0.5
vt 0.986328 0.5
vt 0.990234 0.5
vt 0.994141 0.5

# verts
v -20 1 19.5
v -20 1 -19.5
v -20 39 19.5
v -20 39 -19.5
v -19 0 19.5
v -19 0 -19.5
v -19 1 20.5
v -19 1 19.5
v -19 1 -19.5
v -19 1 -20.5
v -19 39 20.5
v -19 39 19.5
v -19 39 -19.5
v -19 39 -20.5
v -19 40 19.5
v -19 40 -19.5
v 10 39 10.5
v 10 39 -10.5
v 10 40 10.5
v 10 40 -10.5
v 18 2 18.5
v 18 2 -18.5
v 18 39 18.5
v 18 39 -18.5
v -18 2 18.5
v -18 2 -18.5
v -18 39 18.5
v -18 39 -18.5
v -10 39 10.5
v -10 39 -10.5
v -10 40 10.5
v -10 40 -10.5
v 19 0 19.5
v 19 0 -19.5
v 19 1 20.5
v 19 1 19.5
v 19 1 -19.5
v 19 1 -20.5
v 19 39 20.5
v 19 39 19.5
v 19 39 -19.5
v 19 39 -20.5
v 19 40 19.5
v 19 40 -19.5
v 20 1 19.5
v 20 1 -19.5
v 20 16 14.5
v 20 16 -14.5
v 20 17 15.5
v 20 17 14.5
v 20 17 9.5
v 20 17 -3.5
v 20 17 -14.5
v 20 17 -15.5
v 20 18 16.5
v 20 18 15.5
v 20 18 14.5
v 20 18 10.5
v 20 18 9.5
v 20 18 8.5
v 20 18 6.5
v 20 18 5.5
v 20 18 2.5
v 20 18 1.5
v 20 18 -1.5
v 20 18 -2.5
v 20 18 -3.5
v 20 18 -4.5
v 20 18 -5.5
v 20 18 -7.5
v 20 18 -8.5
v 20 18 -11.5
v 20 18 -12.5
v 20 18 -14.5
v 20 18 -15.5
v 20 18 -16.5
v 20 19 14.5
v 20 19 10.5
v 20 19 9.5
v 20 19 8.5
v 20 19 7.5
v 20 19 -5.5
v 20 19 -7.5
v 20 20 7.5
v 20 20 6.5
v 20 21 5.5
v 20 21 3.5
v 20 21 -8.5
v 20 21 -9.5
v 20 22 13.5
v 20 22 10.5
v 20 22 9.5
v 20 22 1.5
v 20 22 -1.5
v 20 22 -4.5
v 20 22 -7.5
v 20 22 -8.5
v 20 22 -9.5
v 20 22 -10.5
v 20 23 14.5
v 20 23 13.5
v 20 23 10.5
v 20 23 3.5
v 20 23 2.5
v 20 23 1.5
v 20 23 -1.5
v 20 23 -4.5
v 20 23 -7.5
v 20 23 -8.5
v 20 23 -10.5
v 20 23 -11.5
v 20 23 -12.5
v 20 23 -13.5
v 20 24 1.5
v 20 24 0.5
v 20 25 0.5
v 20 25 -0.5
v 20 25 -13.5
v 20 25 -14.5
v 20 26 14.5
v 20 26 13.5
v 20 26 9.5
v 20 26 8.5
v 20 26 6.5
v 20 26 5.5
v 20 26 3.5
v 20 26 2.5
v 20 26 1.5
v 20 26 -0.5
v 20 26 -1.5
v 20 26 -2.5
v 20 26 -4.5
v 20 26 -7.5
v 20 26 -8.5
v 20 26 -9.5
v 20 26 -11.5
v 20 26 -12.5
v 20 26 -14.5
v 20 26 -15.5
v 20 27 16.5
v 20 27 15.5
v 20 27 14.5
v 20 27 13.5
v 20 27 9.5
v 20 27 8.5
v 20 27 3.5
v 20 27 1.5
v 20 27 -1.5
v 20 27 -2.5
v 20 27 -3.5
v 20 27 -7.5
v 20 27 -9.5
v 20 27 -14.5
v 20 27 -15.5
v 20 27 -16.5
v 20 28 15.5
v 20 28 14.5
v 20 28 -2.5
v 20 28 -14.5
v 20 28 -15.5
v 20 29 14.5
v 20 29 -14.5
v 20 39 19.5
v 20 39 -19.5
v -19 1 20.5
v -19 39 20.5
v 19 1 20.5
v 19 39 20.5
v -20 1 19.5
v -20 39 19.5
v -19 0 19.5
v -19 1 19.5
v -19 39 19.5
v -19 40 19.5
v 19 0 19.5
v 19 1 19.5
v 19 39 19.5
v 19 40 19.5
v 20 1 19.5
v 20 39 19.5
v -10 39 -10.5
v -10 40 -10.5
v 10 39 -10.5
v 10 40 -10.5
v -18 2 -18.5
v -18 39 -18.5
v 18 2 -18.5
v 18 39 -18.5
v -18 2 18.5
v -18 39 18.5
v 18 2 18.5
v 18 39 18.5
v -10 39 10.5
v -10 40 10.5
v 10 39 10.5
v 10 40 10.5
v -20 1 -19.5
v -20 39 -19.5
v -19 0 -19.5
v -19 1 -19.5
v -19 39 -19.5
v -19 40 -19.5
v 19 0 -19.5
v 19 1 -19.5
v 19 39 -19.5
v 19 40 -19.5
v 20 1 -19.5
v 20 39 -19.5
v -19 1 -20.5
v -19 39 -20.5
v 19 1 -20.5
v 19 39 -20.5
v -19 0 19.5
v 19 0 19.5
v -19 0 -19.5
v 19 0 -19.5
v -19 1 20.5
v 19 1 20.5
v -20 1 19.5
v -19 1 19.5
v 19 1 19.5
v 20 1 19.5
v -20 1 -19.5
v -19 1 -19.5
v 19 1 -19.5
v 20 1 -19.5
v -19 1 -20.5
v 19 1 -20.5
v -18 39 18.5
v 18 39 18.5
v -10 39 10.5
v 10 39 10.5
v -10 39 -10.5
v 10 39 -10.5
v -18 39 -18.5
v 18 39 -18.5
v -18 2 18.5
v 18 2 18.5
v -18 2 -18.5
v 18 2 -18.5
v -19 39 20.5
v 19 39 20.5
v -20 39 19.5
v -19 39 19.5
v 19 39 19.5
v 20 39 19.5
v -20 39 -19.5
v -19 39 -19.5
v 19 39 -19.5
v 20 39 -19.5
v -19 39 -20.5
v 19 39 -20.5
v -19 40 19.5
v 19 40 19.5
v -10 40 10.5
v 10 40 10.5
v -10 40 -10.5
v 10 40 -10.5
v -19 40 -19.5
v 19 40 -19.5

# faces
f 3/2/1 2/2/1 1/2/1
f 4/2/1 2/2/1 3/2/1
f 8/2/1 6/2/1 5/2/1
f 9/2/1 6/2/1 8/2/1
f 11/2/1 8/2/1 7/2/1
f 12/2/1 8/2/1 11/2/1
f 13/2/1 10/2/1 9/2/1
f 14/2/1 10/2/1 13/2/1
f 15/2/1 13/2/1 12/2/1
f 16/2/1 13/2/1 15/2/1
f 19/2/1 18/2/1 17/2/1
f 20/2/1 18/2/1 19/2/1
f 23/3/1 22/3/1 21/3/1
f 24/3/1 22/3/1 23/3/1
f 25/3/2 26/3/2 27/3/2
f 27/3/2 26/3/2 28/3/2
f 29/2/2 30/2/2 31/2/2
f 31/2/2 30/2/2 32/2/2
f 33/2/2 34/2/2 36/2/2
f 36/2/2 34/2/2 37/2/2
f 35/2/2 36/2/2 39/2/2
f 39/2/2 36/2/2 40/2/2
f 37/2/2 38/2/2 41/2/2
f 41/2/2 38/2/2 42/2/2
f 40/2/2 41/2/2 43/2/2
f 43/2/2 41/2/2 44/2/2
f 45/2/2 46/2/2 47/2/2
f 47/2/2 46/2/2 48/2/2
f 45/2/2 47/2/2 49/2/2
f 47/4/2 48/4/2 50/4/2
f 49/2/2 47/2/2 50/2/2
f 50/4/2 48/4/2 51/4/2
f 51/4/2 48/4/2 52/4/2
f 48/2/2 46/2/2 53/2/2
f 52/4/2 48/4/2 53/4/2
f 53/2/2 46/2/2 54/2/2
f 45/2/2 49/2/2 55/2/2
f 49/4/2 50/4/2 56/4/2
f 55/2/2 49/2/2 56/2/2
f 50/5/2 51/5/2 57/5/2
f 56/4/2 50/4/2 57/4/2
f 57/5/2 51/5/2 58/5/2
f 51/6/2 52/6/2 59/6/2
f 58/5/2 51/5/2 59/5/2
f 59/6/2 52/6/2 60/6/2
f 60/6/2 52/6/2 61/6/2
f 61/6/2 52/6/2 62/6/2
f 62/6/2 52/6/2 63/6/2
f 63/6/2 52/6/2 64/6/2
f 64/6/2 52/6/2 65/6/2
f 65/6/2 52/6/2 66/6/2
f 52/1/2 53/1/2 67/1/2
f 66/6/2 52/6/2 67/6/2
f 67/1/2 53/1/2 68/1/2
f 68/1/2 53/1/2 69/1/2
f 69/1/2 53/1/2 70/1/2
f 70/1/2 53/1/2 71/1/2
f 71/1/2 53/1/2 72/1/2
f 72/1/2 53/1/2 73/1/2
f 53/4/2 54/4/2 74/4/2
f 73/1/2 53/1/2 74/1/2
f 54/2/2 46/2/2 75/2/2
f 74/4/2 54/4/2 75/4/2
f 75/2/2 46/2/2 76/2/2
f 57/4/2 58/4/2 77/4/2
f 56/5/2 57/5/2 77/5/2
f 58/5/2 59/5/2 78/5/2
f 77/4/2 58/4/2 78/4/2
f 59/5/2 60/5/2 78/5/2
f 78/5/2 60/5/2 79/5/2
f 60/6/2 61/6/2 80/6/2
f 79/5/2 60/5/2 80/5/2
f 80/6/2 61/6/2 81/6/2
f 68/6/2 69/6/2 82/6/2
f 69/1/2 70/1/2 82/1/2
f 70/4/2 71/4/2 83/4/2
f 82/1/2 70/1/2 83/1/2
f 81/6/2 61/6/2 84/6/2
f 80/5/2 81/5/2 84/5/2
f 79/5/2 80/5/2 84/5/2
f 61/4/2 62/4/2 85/4/2
f 84/6/2 61/6/2 85/6/2
f 62/6/2 63/6/2 86/6/2
f 85/4/2 62/4/2 86/4/2
f 86/6/2 63/6/2 87/6/2
f 83/4/2 71/4/2 88/4/2
f 71/1/2 72/1/2 88/1/2
f 88/1/2 72/1/2 89/1/2
f 77/5/2 78/5/2 90/5/2
f 78/4/2 79/4/2 91/4/2
f 90/5/2 78/5/2 91/5/2
f 79/5/2 84/5/2 92/5/2
f 91/4/2 79/4/2 92/4/2
f 84/5/2 85/5/2 92/5/2
f 63/4/2 64/4/2 93/4/2
f 64/6/2 65/6/2 93/6/2
f 65/4/2 66/4/2 94/4/2
f 93/6/2 65/6/2 94/6/2
f 67/4/2 68/4/2 95/4/2
f 82/6/2 83/6/2 95/6/2
f 68/6/2 82/6/2 95/6/2
f 83/4/2 88/4/2 96/4/2
f 95/6/2 83/6/2 96/6/2
f 88/6/2 89/6/2 97/6/2
f 96/4/2 88/4/2 97/4/2
f 89/1/2 72/1/2 98/1/2
f 97/6/2 89/6/2 98/6/2
f 98/1/2 72/1/2 99/1/2
f 56/5/2 77/5/2 100/5/2
f 77/5/2 90/5/2 100/5/2
f 90/4/2 91/4/2 101/4/2
f 100/5/2 90/5/2 101/5/2
f 91/5/2 92/5/2 102/5/2
f 101/4/2 91/4/2 102/4/2
f 87/6/2 63/6/2 103/6/2
f 86/5/2 87/5/2 103/5/2
f 63/4/2 93/4/2 104/4/2
f 103/6/2 63/6/2 104/6/2
f 93/4/2 94/4/2 104/4/2
f 104/4/2 94/4/2 105/4/2
f 94/4/2 66/4/2 106/4/2
f 105/4/2 94/4/2 106/4/2
f 95/4/2 96/4/2 107/4/2
f 67/4/2 95/4/2 107/4/2
f 98/6/2 99/6/2 108/6/2
f 107/4/2 96/4/2 108/4/2
f 97/6/2 98/6/2 108/6/2
f 96/6/2 97/6/2 108/6/2
f 108/6/2 99/6/2 109/6/2
f 99/1/2 72/1/2 110/1/2
f 109/6/2 99/6/2 110/6/2
f 72/4/2 73/4/2 111/4/2
f 110/1/2 72/1/2 111/1/2
f 73/1/2 74/1/2 112/1/2
f 111/4/2 73/4/2 112/4/2
f 74/1/2 75/1/2 112/1/2
f 112/1/2 75/1/2 113/1/2
f 104/4/2 105/4/2 114/4/2
f 105/6/2 106/6/2 114/6/2
f 114/6/2 106/6/2 115/6/2
f 114/5/2 115/5/2 116/5/2
f 115/6/2 106/6/2 116/6/2
f 116/6/2 106/6/2 117/6/2
f 113/1/2 75/1/2 118/1/2
f 112/6/2 113/6/2 118/6/2
f 118/1/2 75/1/2 119/1/2
f 56/5/2 100/5/2 120/5/2
f 100/4/2 101/4/2 120/4/2
f 101/5/2 102/5/2 121/5/2
f 120/4/2 101/4/2 121/4/2
f 92/5/2 85/5/2 122/5/2
f 121/5/2 102/5/2 122/5/2
f 102/5/2 92/5/2 122/5/2
f 122/5/2 85/5/2 123/5/2
f 85/4/2 86/4/2 124/4/2
f 123/5/2 85/5/2 124/5/2
f 86/5/2 103/5/2 125/5/2
f 124/4/2 86/4/2 125/4/2
f 103/5/2 104/5/2 125/5/2
f 125/5/2 104/5/2 126/5/2
f 104/4/2 114/4/2 127/4/2
f 126/5/2 104/5/2 127/5/2
f 116/5/2 117/5/2 128/5/2
f 127/4/2 114/4/2 128/4/2
f 114/5/2 116/5/2 128/5/2
f 117/6/2 106/6/2 129/6/2
f 128/5/2 117/5/2 129/5/2
f 106/4/2 66/4/2 130/4/2
f 129/6/2 106/6/2 130/6/2
f 66/6/2 67/6/2 131/6/2
f 130/4/2 66/4/2 131/4/2
f 107/6/2 108/6/2 132/6/2
f 67/4/2 107/4/2 132/4/2
f 108/4/2 109/4/2 133/4/2
f 132/6/2 108/6/2 133/6/2
f 110/6/2 111/6/2 134/6/2
f 133/4/2 109/4/2 134/4/2
f 109/6/2 110/6/2 134/6/2
f 134/6/2 111/6/2 135/6/2
f 111/4/2 112/4/2 136/4/2
f 135/6/2 111/6/2 136/6/2
f 118/6/2 119/6/2 137/6/2
f 136/4/2 112/4/2 137/4/2
f 112/6/2 118/6/2 137/6/2
f 119/1/2 75/1/2 138/1/2
f 137/6/2 119/6/2 138/6/2
f 75/4/2 76/4/2 139/4/2
f 138/1/2 75/1/2 139/1/2
f 45/2/2 55/2/2 140/2/2
f 55/4/2 56/4/2 140/4/2
f 120/5/2 121/5/2 141/5/2
f 140/4/2 56/4/2 141/4/2
f 56/5/2 120/5/2 141/5/2
f 141/5/2 121/5/2 142/5/2
f 121/4/2 122/4/2 143/4/2
f 142/5/2 121/5/2 143/5/2
f 122/5/2 123/5/2 144/5/2
f 143/4/2 122/4/2 144/4/2
f 123/4/2 124/4/2 145/4/2
f 144/5/2 123/5/2 145/5/2
f 124/4/2 125/4/2 145/4/2
f 125/4/2 126/4/2 145/4/2
f 127/5/2 128/5/2 146/5/2
f 145/4/2 126/4/2 146/4/2
f 126/5/2 127/5/2 146/5/2
f 128/4/2 129/4/2 147/4/2
f 146/5/2 128/5/2 147/5/2
f 129/4/2 130/4/2 147/4/2
f 130/6/2 131/6/2 148/6/2
f 147/4/2 130/4/2 148/4/2
f 131/6/2 67/6/2 149/6/2
f 148/6/2 131/6/2 149/6/2
f 132/4/2 133/4/2 150/4/2
f 149/6/2 67/6/2 150/6/2
f 67/4/2 132/4/2 150/4/2
f 134/6/2 135/6/2 151/6/2
f 150/4/2 133/4/2 151/4/2
f 133/6/2 134/6/2 151/6/2
f 137/4/2 138/4/2 152/4/2
f 151/6/2 135/6/2 152/6/2
f 136/4/2 137/4/2 152/4/2
f 135/4/2 136/4/2 152/4/2
f 138/6/2 139/6/2 153/6/2
f 152/4/2 138/4/2 153/4/2
f 139/4/2 76/4/2 154/4/2
f 153/6/2 139/6/2 154/6/2
f 76/2/2 46/2/2 155/2/2
f 154/4/2 76/4/2 155/4/2
f 140/2/2 141/2/2 156/2/2
f 141/4/2 142/4/2 156/4/2
f 148/5/2 149/5/2 157/5/2
f 156/4/2 142/4/2 157/4/2
f 143/5/2 144/5/2 157/5/2
f 142/5/2 143/5/2 157/5/2
f 144/5/2 145/5/2 157/5/2
f 147/5/2 148/5/2 157/5/2
f 145/5/2 146/5/2 157/5/2
f 146/5/2 147/5/2 157/5/2
f 152/6/2 153/6/2 158/6/2
f 157/5/2 149/5/2 158/5/2
f 151/6/2 152/6/2 158/6/2
f 149/6/2 150/6/2 158/6/2
f 150/6/2 151/6/2 158/6/2
f 153/4/2 154/4/2 159/4/2
f 158/6/2 153/6/2 159/6/2
f 154/2/2 155/2/2 160/2/2
f 159/4/2 154/4/2 160/4/2
f 157/4/2 158/4/2 161/4/2
f 156/2/2 157/2/2 161/2/2
f 158/4/2 159/4/2 161/4/2
f 159/2/2 160/2/2 162/2/2
f 161/4/2 159/4/2 162/4/2
f 140/2/2 156/2/2 163/2/2
f 156/2/2 161/2/2 163/2/2
f 161/2/2 162/2/2 163/2/2
f 45/2/2 140/2/2 163/2/2
f 160/2/2 155/2/2 164/2/2
f 163/2/2 162/2/2 164/2/2
f 162/2/2 160/2/2 164/2/2
f 155/2/2 46/2/2 164/2/2
f 167/2/3 166/2/3 165/2/3
f 168/2/3 166/2/3 167/2/3
f 172/2/3 170/2/3 169/2/3
f 173/2/3 170/2/3 172/2/3
f 175/2/3 172/2/3 171/2/3
f 176/2/3 172/2/3 175/2/3
f 177/2/3 174/2/3 173/2/3
f 178/2/3 174/2/3 177/2/3
f 179/2/3 177/2/3 176/2/3
f 180/2/3 177/2/3 179/2/3
f 183/2/3 182/2/3 181/2/3
f 184/2/3 182/2/3 183/2/3
f 187/3/3 186/3/3 185/3/3
f 188/3/3 186/3/3 187/3/3
f 189/3/4 190/3/4 191/3/4
f 191/3/4 190/3/4 192/3/4
f 193/2/4 194/2/4 195/2/4
f 195/2/4 194/2/4 196/2/4
f 197/2/4 198/2/4 200/2/4
f 200/2/4 198/2/4 201/2/4
f 199/2/4 200/2/4 203/2/4
f 203/2/4 200/2/4 204/2/4
f 201/2/4 202/2/4 205/2/4
f 205/2/4 202/2/4 206/2/4
f 204/2/4 205/2/4 207/2/4
f 207/2/4 205/2/4 208/2/4
f 209/2/4 210/2/4 211/2/4
f 211/2/4 210/2/4 212/2/4
f 215/2/5 214/2/5 213/2/5
f 216/2/5 214/2/5 215/2/5
f 220/2/5 218/2/5 217/2/5
f 221/2/5 218/2/5 220/2/5
f 223/2/5 220/2/5 219/2/5
f 224/2/5 220/2/5 223/2/5
f 225/2/5 222/2/5 221/2/5
f 226/2/5 222/2/5 225/2/5
f 227/2/5 225/2/5 224/2/5
f 228/2/5 225/2/5 227/2/5
f 231/2/5 230/2/5 229/2/5
f 232/2/5 230/2/5 231/2/5
f 233/2/5 231/2/5 229/2/5
f 234/2/5 230/2/5 232/2/5
f 235/2/5 233/2/5 229/2/5
f 235/2/5 234/2/5 233/2/5
f 236/2/5 230/2/5 234/2/5
f 236/2/5 234/2/5 235/2/5
f 237/3/6 238/3/6 239/3/6
f 239/3/6 238/3/6 240/3/6
f 241/2/6 242/2/6 244/2/6
f 244/2/6 242/2/6 245/2/6
f 243/2/6 244/2/6 247/2/6
f 247/2/6 244/2/6 248/2/6
f 245/2/6 246/2/6 249/2/6
f 249/2/6 246/2/6 250/2/6
f 248/2/6 249/2/6 251/2/6
f 251/2/6 249/2/6 252/2/6
f 253/2/6 254/2/6 255/2/6
f 255/2/6 254/2/6 256/2/6
f 253/2/6 255/2/6 257/2/6
f 256/2/6 254/2/6 258/2/6
f 253/2/6 257/2/6 259/2/6
f 257/2/6 258/2/6 259/2/6
f 258/2/6 254/2/6 260/2/6
f 259/2/6 258/2/6 260/2/6
