# MagicaVoxel @ Ephtracy

# group
g blaa skraldespand

# material
mtllib blaa skraldespand.mtl
usemtl palette

# normals
vn -1 0 0
vn 1 0 0
vn 0 0 1
vn 0 0 -1
vn 0 -1 0
vn 0 1 0

# texcoords
vt 0.970703 0.5
vt 0.974609 0.5
vt 0.978516 0.5
vt 0.982422 0.5

# verts
v -20 0 19
v -20 0 -19
v -20 69 19
v -20 69 -19
v -19 0 20
v -19 0 19
v -19 0 -19
v -19 0 -20
v -19 69 20
v -19 69 19
v -19 69 -19
v -19 69 -20
v -19 70 19
v -19 70 -19
v 17 41 20
v 17 41 19
v 17 67 20
v 17 67 19
v 18 2 18
v 18 2 -18
v 18 40 19
v 18 40 18
v 18 41 19
v 18 67 19
v 18 68 19
v 18 68 -18
v -18 2 18
v -18 2 -18
v -18 40 19
v -18 40 18
v -18 41 19
v -18 67 19
v -18 68 19
v -18 68 -18
v -17 41 20
v -17 41 19
v -17 67 20
v -17 67 19
v 19 0 20
v 19 0 19
v 19 0 -19
v 19 0 -20
v 19 69 20
v 19 69 19
v 19 69 -19
v 19 69 -20
v 19 70 19
v 19 70 -19
v 20 0 19
v 20 0 -19
v 20 69 19
v 20 69 -19
v -19 0 20
v -19 69 20
v -18 40 20
v -18 41 20
v -18 67 20
v -18 68 20
v -17 40 20
v -17 41 20
v -17 67 20
v -17 68 20
v -11 28 20
v -11 29 20
v -10 17 20
v -10 24 20
v -10 27 20
v -10 28 20
v -9 16 20
v -9 17 20
v -9 24 20
v -9 25 20
v -9 26 20
v -9 27 20
v -8 15 20
v -8 16 20
v -8 25 20
v -8 26 20
v -7 14 20
v -7 15 20
v -6 13 20
v -6 14 20
v -6 16 20
v -6 23 20
v -5 15 20
v -5 16 20
v -5 22 20
v -5 23 20
v -4 14 20
v -4 15 20
v -4 21 20
v -4 22 20
v -3 13 20
v -3 14 20
v -3 20 20
v -3 21 20
v -2 13 20
v -2 15 20
v -2 20 20
v -2 29 20
v -2 30 20
v -1 12 20
v -1 13 20
v -1 15 20
v -1 16 20
v -1 30 20
v -1 31 20
v 0 11 20
v 0 12 20
v 0 16 20
v 0 17 20
v 1 10 20
v 1 11 20
v 1 17 20
v 1 18 20
v 1 31 20
v 1 32 20
v 2 9 20
v 2 10 20
v 2 18 20
v 2 19 20
v 3 8 20
v 3 9 20
v 3 19 20
v 3 20 20
v 3 23 20
v 3 24 20
v 3 28 20
v 3 29 20
v 4 8 20
v 4 11 20
v 4 15 20
v 4 20 20
v 4 24 20
v 4 25 20
v 4 27 20
v 4 28 20
v 5 25 20
v 5 26 20
v 6 26 20
v 6 27 20
v 6 31 20
v 6 32 20
v 7 30 20
v 7 31 20
v 8 29 20
v 8 30 20
v 9 15 20
v 9 16 20
v 9 29 20
v 9 30 20
v 10 11 20
v 10 12 20
v 10 16 20
v 10 21 20
v 10 30 20
v 10 31 20
v 11 12 20
v 11 13 20
v 11 21 20
v 11 22 20
v 11 31 20
v 11 32 20
v 12 13 20
v 12 22 20
v 12 23 20
v 12 32 20
v 17 40 20
v 17 41 20
v 17 67 20
v 17 68 20
v 18 40 20
v 18 41 20
v 18 67 20
v 18 68 20
v 19 0 20
v 19 69 20
v -20 0 19
v -20 69 19
v -19 0 19
v -19 69 19
v -19 70 19
v 19 0 19
v 19 69 19
v 19 70 19
v 20 0 19
v 20 69 19
v -18 2 -18
v -18 68 -18
v 18 2 -18
v 18 68 -18
v -18 40 19
v -18 41 19
v -18 67 19
v -18 68 19
v -17 40 19
v -17 41 19
v -17 67 19
v -17 68 19
v 17 40 19
v 17 41 19
v 17 67 19
v 17 68 19
v 18 40 19
v 18 41 19
v 18 67 19
v 18 68 19
v -18 2 18
v -18 40 18
v 18 2 18
v 18 40 18
v -20 0 -19
v -20 69 -19
v -19 0 -19
v -19 69 -19
v -19 70 -19
v 19 0 -19
v 19 69 -19
v 19 70 -19
v 20 0 -19
v 20 69 -19
v -19 0 -20
v -19 69 -20
v 19 0 -20
v 19 69 -20
v -19 0 20
v 19 0 20
v -20 0 19
v -19 0 19
v 19 0 19
v 20 0 19
v -20 0 -19
v -19 0 -19
v 19 0 -19
v 20 0 -19
v -19 0 -20
v 19 0 -20
v -17 67 20
v 17 67 20
v -17 67 19
v 17 67 19
v -18 68 19
v -17 68 19
v 17 68 19
v 18 68 19
v -18 68 -18
v 18 68 -18
v -18 2 18
v 18 2 18
v -18 2 -18
v 18 2 -18
v -18 40 19
v -17 40 19
v 17 40 19
v 18 40 19
v -18 40 18
v 18 40 18
v -17 41 20
v 17 41 20
v -17 41 19
v 17 41 19
v -19 69 20
v 19 69 20
v -20 69 19
v -19 69 19
v 19 69 19
v 20 69 19
v -20 69 -19
v -19 69 -19
v 19 69 -19
v 20 69 -19
v -19 69 -20
v 19 69 -20
v -19 70 19
v 19 70 19
v -19 70 -19
v 19 70 -19

# faces
f 3/1/1 2/1/1 1/1/1
f 4/1/1 2/1/1 3/1/1
f 9/1/1 6/1/1 5/1/1
f 10/1/1 6/1/1 9/1/1
f 11/1/1 8/1/1 7/1/1
f 12/1/1 8/1/1 11/1/1
f 13/1/1 11/1/1 10/1/1
f 14/1/1 11/1/1 13/1/1
f 17/1/1 16/1/1 15/1/1
f 18/1/1 16/1/1 17/1/1
f 22/3/1 20/3/1 19/3/1
f 23/3/1 22/3/1 21/3/1
f 24/3/1 22/3/1 23/3/1
f 25/3/1 22/3/1 24/3/1
f 26/3/1 20/3/1 22/3/1
f 26/3/1 22/3/1 25/3/1
f 27/3/2 28/3/2 30/3/2
f 29/3/2 30/3/2 31/3/2
f 31/3/2 30/3/2 32/3/2
f 32/3/2 30/3/2 33/3/2
f 30/3/2 28/3/2 34/3/2
f 33/3/2 30/3/2 34/3/2
f 35/1/2 36/1/2 37/1/2
f 37/1/2 36/1/2 38/1/2
f 39/1/2 40/1/2 43/1/2
f 43/1/2 40/1/2 44/1/2
f 41/1/2 42/1/2 45/1/2
f 45/1/2 42/1/2 46/1/2
f 44/1/2 45/1/2 47/1/2
f 47/1/2 45/1/2 48/1/2
f 49/1/2 50/1/2 51/1/2
f 51/1/2 50/1/2 52/1/2
f 55/1/3 54/1/3 53/1/3
f 56/1/3 54/1/3 55/1/3
f 57/1/3 54/1/3 56/1/3
f 58/1/3 54/1/3 57/1/3
f 59/1/3 55/1/3 53/1/3
f 59/2/3 56/2/3 55/2/3
f 60/1/3 57/1/3 56/1/3
f 60/2/3 56/2/3 59/2/3
f 61/2/3 58/2/3 57/2/3
f 61/1/3 57/1/3 60/1/3
f 62/1/3 54/1/3 58/1/3
f 62/2/3 58/2/3 61/2/3
f 63/1/3 60/1/3 59/1/3
f 63/1/3 59/1/3 53/1/3
f 64/1/3 60/1/3 63/1/3
f 65/1/3 63/1/3 53/1/3
f 66/1/3 63/1/3 65/1/3
f 67/1/3 63/1/3 66/1/3
f 68/4/3 64/4/3 63/4/3
f 68/1/3 63/1/3 67/1/3
f 69/1/3 65/1/3 53/1/3
f 70/4/3 66/4/3 65/4/3
f 70/1/3 65/1/3 69/1/3
f 71/1/3 67/1/3 66/1/3
f 71/4/3 66/4/3 70/4/3
f 72/1/3 67/1/3 71/1/3
f 73/1/3 67/1/3 72/1/3
f 74/4/3 68/4/3 67/4/3
f 74/1/3 67/1/3 73/1/3
f 75/1/3 69/1/3 53/1/3
f 76/4/3 70/4/3 69/4/3
f 76/1/3 69/1/3 75/1/3
f 76/4/3 71/4/3 70/4/3
f 76/4/3 72/4/3 71/4/3
f 77/1/3 73/1/3 72/1/3
f 77/4/3 72/4/3 76/4/3
f 78/4/3 74/4/3 73/4/3
f 78/1/3 73/1/3 77/1/3
f 79/1/3 75/1/3 53/1/3
f 80/4/3 76/4/3 75/4/3
f 80/1/3 75/1/3 79/1/3
f 80/4/3 77/4/3 76/4/3
f 80/4/3 78/4/3 77/4/3
f 81/1/3 79/1/3 53/1/3
f 82/4/3 80/4/3 79/4/3
f 82/1/3 79/1/3 81/1/3
f 83/4/3 78/4/3 80/4/3
f 83/4/3 80/4/3 82/4/3
f 84/4/3 78/4/3 83/4/3
f 85/4/3 82/4/3 81/4/3
f 85/4/3 83/4/3 82/4/3
f 86/1/3 84/1/3 83/1/3
f 86/4/3 83/4/3 85/4/3
f 87/1/3 84/1/3 86/1/3
f 88/4/3 78/4/3 84/4/3
f 88/1/3 84/1/3 87/1/3
f 89/4/3 85/4/3 81/4/3
f 90/1/3 87/1/3 86/1/3
f 90/4/3 85/4/3 89/4/3
f 90/1/3 86/1/3 85/1/3
f 91/1/3 87/1/3 90/1/3
f 92/4/3 88/4/3 87/4/3
f 92/1/3 87/1/3 91/1/3
f 93/4/3 89/4/3 81/4/3
f 93/1/3 81/1/3 53/1/3
f 94/1/3 91/1/3 90/1/3
f 94/4/3 89/4/3 93/4/3
f 94/1/3 90/1/3 89/1/3
f 95/1/3 91/1/3 94/1/3
f 96/4/3 92/4/3 91/4/3
f 96/1/3 91/1/3 95/1/3
f 97/1/3 95/1/3 94/1/3
f 97/1/3 93/1/3 53/1/3
f 97/1/3 94/1/3 93/1/3
f 98/1/3 95/1/3 97/1/3
f 99/4/3 96/4/3 95/4/3
f 99/1/3 95/1/3 98/1/3
f 100/1/3 60/1/3 64/1/3
f 100/4/3 96/4/3 99/4/3
f 100/4/3 74/4/3 78/4/3
f 100/4/3 64/4/3 68/4/3
f 100/4/3 68/4/3 74/4/3
f 100/4/3 78/4/3 88/4/3
f 100/4/3 92/4/3 96/4/3
f 100/4/3 88/4/3 92/4/3
f 101/1/3 60/1/3 100/1/3
f 102/1/3 97/1/3 53/1/3
f 103/4/3 98/4/3 97/4/3
f 103/1/3 97/1/3 102/1/3
f 104/1/3 99/1/3 98/1/3
f 104/4/3 98/4/3 103/4/3
f 104/1/3 100/1/3 99/1/3
f 105/1/3 100/1/3 104/1/3
f 106/1/3 60/1/3 101/1/3
f 106/4/3 101/4/3 100/4/3
f 107/1/3 60/1/3 106/1/3
f 108/1/3 102/1/3 53/1/3
f 109/4/3 103/4/3 102/4/3
f 109/1/3 102/1/3 108/1/3
f 109/4/3 105/4/3 104/4/3
f 109/4/3 104/4/3 103/4/3
f 110/1/3 100/1/3 105/1/3
f 110/4/3 105/4/3 109/4/3
f 111/1/3 100/1/3 110/1/3
f 112/1/3 108/1/3 53/1/3
f 113/4/3 109/4/3 108/4/3
f 113/1/3 108/1/3 112/1/3
f 113/4/3 110/4/3 109/4/3
f 113/4/3 111/4/3 110/4/3
f 114/1/3 100/1/3 111/1/3
f 114/4/3 111/4/3 113/4/3
f 115/1/3 100/1/3 114/1/3
f 116/1/3 60/1/3 107/1/3
f 116/4/3 107/4/3 106/4/3
f 117/1/3 60/1/3 116/1/3
f 118/1/3 112/1/3 53/1/3
f 119/4/3 113/4/3 112/4/3
f 119/1/3 112/1/3 118/1/3
f 119/4/3 115/4/3 114/4/3
f 119/4/3 114/4/3 113/4/3
f 120/1/3 100/1/3 115/1/3
f 120/4/3 115/4/3 119/4/3
f 121/1/3 100/1/3 120/1/3
f 122/1/3 118/1/3 53/1/3
f 123/4/3 119/4/3 118/4/3
f 123/1/3 118/1/3 122/1/3
f 123/4/3 120/4/3 119/4/3
f 123/4/3 121/4/3 120/4/3
f 124/1/3 100/1/3 121/1/3
f 124/4/3 121/4/3 123/4/3
f 125/1/3 100/1/3 124/1/3
f 126/1/3 100/1/3 125/1/3
f 127/1/3 100/1/3 126/1/3
f 128/1/3 100/1/3 127/1/3
f 129/4/3 117/4/3 116/4/3
f 129/1/3 100/1/3 128/1/3
f 129/4/3 106/4/3 100/4/3
f 129/4/3 116/4/3 106/4/3
f 130/4/3 123/4/3 122/4/3
f 130/1/3 122/1/3 53/1/3
f 130/4/3 124/4/3 123/4/3
f 130/4/3 125/4/3 124/4/3
f 131/4/3 125/4/3 130/4/3
f 132/4/3 125/4/3 131/4/3
f 133/1/3 126/1/3 125/1/3
f 133/4/3 125/4/3 132/4/3
f 134/1/3 128/1/3 127/1/3
f 134/4/3 127/4/3 126/4/3
f 135/1/3 128/1/3 134/1/3
f 136/1/3 128/1/3 135/1/3
f 137/4/3 129/4/3 128/4/3
f 137/1/3 128/1/3 136/1/3
f 138/1/3 136/1/3 135/1/3
f 138/4/3 135/4/3 134/4/3
f 139/1/3 136/1/3 138/1/3
f 140/4/3 139/4/3 138/4/3
f 140/1/3 136/1/3 139/1/3
f 141/4/3 137/4/3 136/4/3
f 141/1/3 136/1/3 140/1/3
f 142/4/3 117/4/3 129/4/3
f 142/4/3 137/4/3 141/4/3
f 142/4/3 129/4/3 137/4/3
f 143/1/3 60/1/3 117/1/3
f 143/4/3 117/4/3 142/4/3
f 144/4/3 141/4/3 140/4/3
f 144/4/3 142/4/3 141/4/3
f 145/1/3 143/1/3 142/1/3
f 145/4/3 142/4/3 144/4/3
f 146/4/3 144/4/3 140/4/3
f 147/1/3 145/1/3 144/1/3
f 147/4/3 144/4/3 146/4/3
f 148/1/3 133/1/3 132/1/3
f 148/4/3 132/4/3 131/4/3
f 149/1/3 133/1/3 148/1/3
f 150/1/3 147/1/3 146/1/3
f 150/4/3 146/4/3 140/4/3
f 151/1/3 145/1/3 147/1/3
f 151/1/3 147/1/3 150/1/3
f 152/1/3 131/1/3 130/1/3
f 152/4/3 149/4/3 148/4/3
f 152/4/3 148/4/3 131/4/3
f 153/4/3 149/4/3 152/4/3
f 154/1/3 133/1/3 149/1/3
f 154/4/3 149/4/3 153/4/3
f 155/1/3 126/1/3 133/1/3
f 155/1/3 133/1/3 154/1/3
f 156/1/3 145/1/3 151/1/3
f 156/4/3 151/4/3 150/4/3
f 157/1/3 143/1/3 145/1/3
f 157/1/3 145/1/3 156/1/3
f 158/4/3 154/4/3 153/4/3
f 158/1/3 153/1/3 152/1/3
f 158/4/3 155/4/3 154/4/3
f 159/4/3 155/4/3 158/4/3
f 160/1/3 126/1/3 155/1/3
f 160/4/3 155/4/3 159/4/3
f 161/1/3 126/1/3 160/1/3
f 162/1/3 143/1/3 157/1/3
f 162/4/3 157/4/3 156/4/3
f 163/1/3 60/1/3 143/1/3
f 163/1/3 143/1/3 162/1/3
f 164/4/3 161/4/3 160/4/3
f 164/1/3 159/1/3 158/1/3
f 164/4/3 160/4/3 159/4/3
f 165/1/3 126/1/3 161/1/3
f 165/4/3 161/4/3 164/4/3
f 166/4/3 162/4/3 156/4/3
f 166/1/3 126/1/3 165/1/3
f 166/4/3 156/4/3 150/4/3
f 166/4/3 138/4/3 134/4/3
f 166/4/3 150/4/3 140/4/3
f 166/4/3 140/4/3 138/4/3
f 166/4/3 134/4/3 126/4/3
f 166/4/3 163/4/3 162/4/3
f 167/1/3 60/1/3 163/1/3
f 167/4/3 163/4/3 166/4/3
f 168/1/3 165/1/3 164/1/3
f 168/1/3 60/1/3 167/1/3
f 168/1/3 167/1/3 166/1/3
f 168/1/3 166/1/3 165/1/3
f 169/1/3 60/1/3 168/1/3
f 170/1/3 62/1/3 61/1/3
f 171/1/3 54/1/3 62/1/3
f 171/1/3 62/1/3 170/1/3
f 172/2/3 169/2/3 168/2/3
f 172/1/3 168/1/3 164/1/3
f 173/1/3 170/1/3 169/1/3
f 173/2/3 169/2/3 172/2/3
f 174/2/3 171/2/3 170/2/3
f 174/1/3 170/1/3 173/1/3
f 175/1/3 54/1/3 171/1/3
f 175/2/3 171/2/3 174/2/3
f 176/1/3 172/1/3 164/1/3
f 176/1/3 174/1/3 173/1/3
f 176/1/3 175/1/3 174/1/3
f 176/1/3 130/1/3 53/1/3
f 176/1/3 173/1/3 172/1/3
f 176/1/3 164/1/3 158/1/3
f 176/1/3 152/1/3 130/1/3
f 176/1/3 158/1/3 152/1/3
f 177/1/3 54/1/3 175/1/3
f 177/1/3 175/1/3 176/1/3
f 180/1/3 179/1/3 178/1/3
f 181/1/3 179/1/3 180/1/3
f 184/1/3 182/1/3 181/1/3
f 185/1/3 182/1/3 184/1/3
f 186/1/3 184/1/3 183/1/3
f 187/1/3 184/1/3 186/1/3
f 190/3/3 189/3/3 188/3/3
f 191/3/3 189/3/3 190/3/3
f 192/2/4 193/2/4 196/2/4
f 193/1/4 194/1/4 197/1/4
f 196/2/4 193/2/4 197/2/4
f 194/2/4 195/2/4 198/2/4
f 197/1/4 194/1/4 198/1/4
f 198/2/4 195/2/4 199/2/4
f 196/1/4 197/1/4 200/1/4
f 200/1/4 197/1/4 201/1/4
f 198/1/4 199/1/4 202/1/4
f 202/1/4 199/1/4 203/1/4
f 200/2/4 201/2/4 204/2/4
f 201/1/4 202/1/4 205/1/4
f 204/2/4 201/2/4 205/2/4
f 202/2/4 203/2/4 206/2/4
f 205/1/4 202/1/4 206/1/4
f 206/2/4 203/2/4 207/2/4
f 208/3/4 209/3/4 210/3/4
f 210/3/4 209/3/4 211/3/4
f 212/1/4 213/1/4 214/1/4
f 214/1/4 213/1/4 215/1/4
f 215/1/4 216/1/4 218/1/4
f 218/1/4 216/1/4 219/1/4
f 217/1/4 218/1/4 220/1/4
f 220/1/4 218/1/4 221/1/4
f 222/1/4 223/1/4 224/1/4
f 224/1/4 223/1/4 225/1/4
f 229/1/5 227/1/5 226/1/5
f 230/1/5 227/1/5 229/1/5
f 232/1/5 229/1/5 228/1/5
f 232/1/5 231/1/5 230/1/5
f 232/1/5 230/1/5 229/1/5
f 233/1/5 231/1/5 232/1/5
f 234/1/5 231/1/5 233/1/5
f 235/1/5 231/1/5 234/1/5
f 236/1/5 234/1/5 233/1/5
f 237/1/5 234/1/5 236/1/5
f 240/1/5 239/1/5 238/1/5
f 241/1/5 239/1/5 240/1/5
f 246/3/5 243/3/5 242/3/5
f 246/3/5 245/3/5 244/3/5
f 246/3/5 244/3/5 243/3/5
f 247/3/5 245/3/5 246/3/5
f 248/3/6 249/3/6 250/3/6
f 250/3/6 249/3/6 251/3/6
f 252/3/6 253/3/6 256/3/6
f 254/3/6 255/3/6 256/3/6
f 253/3/6 254/3/6 256/3/6
f 256/3/6 255/3/6 257/3/6
f 258/1/6 259/1/6 260/1/6
f 260/1/6 259/1/6 261/1/6
f 262/1/6 263/1/6 265/1/6
f 265/1/6 263/1/6 266/1/6
f 264/1/6 265/1/6 268/1/6
f 268/1/6 265/1/6 269/1/6
f 266/1/6 267/1/6 270/1/6
f 270/1/6 267/1/6 271/1/6
f 269/1/6 270/1/6 272/1/6
f 272/1/6 270/1/6 273/1/6
f 274/1/6 275/1/6 276/1/6
f 276/1/6 275/1/6 277/1/6
