# MagicaVoxel @ Ephtracy

# group
g bugrererererere

# material
mtllib bugrererererere.mtl
usemtl palette

# normals
vn -1 0 0
vn 1 0 0
vn 0 0 1
vn 0 0 -1
vn 0 -1 0
vn 0 1 0

# texcoords
vt 0.939453 0.5
vt 0.970703 0.5
vt 0.974609 0.5
vt 0.978516 0.5
vt 0.982422 0.5

# verts
v -4.5 0 2.5
v -4.5 0 -2.5
v -4.5 1 2.5
v -4.5 1 1.5
v -4.5 1 0.5
v -4.5 1 -2.5
v -4.5 2 1.5
v -4.5 2 0.5
v -4.5 3 2.5
v -4.5 3 -2.5
v -4.5 4 2.5
v -4.5 4 -2.5
v -3.5 0 3.5
v -3.5 0 2.5
v -3.5 0 -2.5
v -3.5 0 -3.5
v -3.5 1 3.5
v -3.5 1 2.5
v -3.5 1 0.5
v -3.5 1 -1.5
v -3.5 1 -2.5
v -3.5 1 -3.5
v -3.5 2 1.5
v -3.5 2 0.5
v -3.5 2 -1.5
v -3.5 2 -2.5
v -3.5 3 3.5
v -3.5 3 2.5
v -3.5 3 1.5
v -3.5 3 0.5
v -3.5 3 -2.5
v -3.5 3 -3.5
v -3.5 4 3.5
v -3.5 4 2.5
v -3.5 4 0.5
v -3.5 4 -0.5
v -3.5 4 -2.5
v -3.5 4 -3.5
v -3.5 5 2.5
v -3.5 5 0.5
v -3.5 5 -0.5
v -3.5 5 -2.5
v -2.5 0 4.5
v -2.5 0 3.5
v -2.5 0 -3.5
v -2.5 0 -4.5
v -2.5 1 4.5
v -2.5 1 3.5
v -2.5 1 2.5
v -2.5 1 1.5
v -2.5 1 -1.5
v -2.5 1 -2.5
v -2.5 1 -3.5
v -2.5 1 -4.5
v -2.5 2 2.5
v -2.5 2 1.5
v -2.5 2 -1.5
v -2.5 2 -2.5
v -2.5 2 -3.5
v -2.5 3 4.5
v -2.5 3 3.5
v -2.5 3 2.5
v -2.5 3 1.5
v -2.5 3 -3.5
v -2.5 3 -4.5
v -2.5 4 4.5
v -2.5 4 3.5
v -2.5 4 2.5
v -2.5 4 -2.5
v -2.5 4 -3.5
v -2.5 4 -4.5
v -2.5 5 3.5
v -2.5 5 2.5
v -2.5 5 -2.5
v -2.5 5 -3.5
v -1.5 1 4.5
v -1.5 1 3.5
v -1.5 1 2.5
v -1.5 2 4.5
v -1.5 2 3.5
v -1.5 2 2.5
v -1.5 2 -2.5
v -1.5 2 -3.5
v -1.5 2 -4.5
v -1.5 3 3.5
v -1.5 3 2.5
v -1.5 3 -2.5
v -1.5 3 -4.5
v 0.5 1 0.5
v 0.5 1 -0.5
v 0.5 2 0.5
v 0.5 2 -0.5
v 2.5 1 -2.5
v 2.5 1 -3.5
v 2.5 2 -2.5
v 2.5 2 -3.5
v -0.5 1 4.5
v -0.5 1 3.5
v -0.5 1 0.5
v -0.5 1 -0.5
v -0.5 2 4.5
v -0.5 2 3.5
v -0.5 2 0.5
v -0.5 2 -0.5
v -0.5 2 -3.5
v -0.5 2 -4.5
v -0.5 3 -3.5
v -0.5 3 -4.5
v 1.5 1 3.5
v 1.5 1 2.5
v 1.5 1 -2.5
v 1.5 1 -3.5
v 1.5 2 3.5
v 1.5 2 2.5
v 1.5 2 -2.5
v 1.5 2 -3.5
v 2.5 0 4.5
v 2.5 0 3.5
v 2.5 0 -3.5
v 2.5 0 -4.5
v 2.5 1 4.5
v 2.5 1 3.5
v 2.5 1 2.5
v 2.5 1 1.5
v 2.5 1 -3.5
v 2.5 1 -4.5
v 2.5 2 3.5
v 2.5 2 2.5
v 2.5 2 1.5
v 2.5 2 -1.5
v 2.5 2 -3.5
v 2.5 3 4.5
v 2.5 3 3.5
v 2.5 3 1.5
v 2.5 3 -1.5
v 2.5 3 -3.5
v 2.5 3 -4.5
v 2.5 4 4.5
v 2.5 4 3.5
v 2.5 4 2.5
v 2.5 4 -2.5
v 2.5 4 -3.5
v 2.5 4 -4.5
v 2.5 5 3.5
v 2.5 5 2.5
v 2.5 5 -2.5
v 2.5 5 -3.5
v 3.5 0 3.5
v 3.5 0 2.5
v 3.5 0 -2.5
v 3.5 0 -3.5
v 3.5 1 3.5
v 3.5 1 2.5
v 3.5 1 1.5
v 3.5 1 -1.5
v 3.5 1 -2.5
v 3.5 1 -3.5
v 3.5 2 1.5
v 3.5 2 0.5
v 3.5 2 -1.5
v 3.5 2 -3.5
v 3.5 3 3.5
v 3.5 3 2.5
v 3.5 3 0.5
v 3.5 3 -1.5
v 3.5 3 -2.5
v 3.5 3 -3.5
v 3.5 4 3.5
v 3.5 4 2.5
v 3.5 4 -2.5
v 3.5 4 -3.5
v 3.5 5 2.5
v 3.5 5 -2.5
v 4.5 0 2.5
v 4.5 0 -2.5
v 4.5 1 2.5
v 4.5 1 -2.5
v 4.5 2 1.5
v 4.5 2 0.5
v 4.5 3 2.5
v 4.5 3 1.5
v 4.5 3 0.5
v 4.5 3 -2.5
v 4.5 4 2.5
v 4.5 4 -2.5
v -2.5 0 4.5
v -2.5 1 4.5
v -2.5 3 4.5
v -2.5 4 4.5
v -1.5 1 4.5
v -1.5 2 4.5
v -0.5 1 4.5
v -0.5 2 4.5
v 2.5 0 4.5
v 2.5 1 4.5
v 2.5 3 4.5
v 2.5 4 4.5
v -3.5 0 3.5
v -3.5 1 3.5
v -3.5 3 3.5
v -3.5 4 3.5
v -2.5 0 3.5
v -2.5 1 3.5
v -2.5 3 3.5
v -2.5 4 3.5
v -2.5 5 3.5
v -1.5 2 3.5
v -1.5 3 3.5
v -0.5 1 3.5
v -0.5 2 3.5
v -0.5 3 3.5
v 1.5 1 3.5
v 1.5 2 3.5
v 2.5 0 3.5
v 2.5 1 3.5
v 2.5 2 3.5
v 2.5 3 3.5
v 2.5 4 3.5
v 2.5 5 3.5
v 3.5 0 3.5
v 3.5 1 3.5
v 3.5 3 3.5
v 3.5 4 3.5
v -4.5 0 2.5
v -4.5 1 2.5
v -4.5 3 2.5
v -4.5 4 2.5
v -3.5 0 2.5
v -3.5 1 2.5
v -3.5 3 2.5
v -3.5 4 2.5
v -3.5 5 2.5
v -2.5 1 2.5
v -2.5 2 2.5
v -2.5 3 2.5
v -2.5 4 2.5
v -2.5 5 2.5
v -1.5 1 2.5
v -1.5 2 2.5
v -1.5 3 2.5
v 1.5 1 2.5
v 1.5 2 2.5
v 2.5 1 2.5
v 2.5 2 2.5
v 2.5 4 2.5
v 2.5 5 2.5
v 3.5 0 2.5
v 3.5 1 2.5
v 3.5 3 2.5
v 3.5 4 2.5
v 3.5 5 2.5
v 4.5 0 2.5
v 4.5 1 2.5
v 4.5 3 2.5
v 4.5 4 2.5
v -4.5 1 1.5
v -4.5 2 1.5
v -3.5 1 1.5
v -3.5 2 1.5
v -3.5 3 1.5
v -2.5 1 1.5
v -2.5 2 1.5
v -2.5 3 1.5
v 2.5 1 1.5
v 2.5 2 1.5
v 2.5 3 1.5
v 3.5 1 1.5
v 3.5 2 1.5
v 4.5 2 1.5
v 4.5 3 1.5
v -0.5 1 -0.5
v -0.5 2 -0.5
v 0.5 1 -0.5
v 0.5 2 -0.5
v -4.5 1 0.5
v -4.5 2 0.5
v -3.5 1 0.5
v -3.5 2 0.5
v -0.5 1 0.5
v -0.5 2 0.5
v 0.5 1 0.5
v 0.5 2 0.5
v 3.5 2 0.5
v 3.5 3 0.5
v 4.5 2 0.5
v 4.5 3 0.5
v -3.5 1 -1.5
v -3.5 2 -1.5
v -2.5 1 -1.5
v -2.5 2 -1.5
v 2.5 2 -1.5
v 2.5 3 -1.5
v 3.5 2 -1.5
v 3.5 3 -1.5
v -4.5 0 -2.5
v -4.5 1 -2.5
v -4.5 3 -2.5
v -4.5 4 -2.5
v -3.5 0 -2.5
v -3.5 1 -2.5
v -3.5 2 -2.5
v -3.5 3 -2.5
v -3.5 4 -2.5
v -3.5 5 -2.5
v -2.5 2 -2.5
v -2.5 4 -2.5
v -2.5 5 -2.5
v -1.5 2 -2.5
v -1.5 3 -2.5
v 1.5 1 -2.5
v 1.5 2 -2.5
v 2.5 1 -2.5
v 2.5 2 -2.5
v 2.5 4 -2.5
v 2.5 5 -2.5
v 3.5 0 -2.5
v 3.5 1 -2.5
v 3.5 3 -2.5
v 3.5 4 -2.5
v 3.5 5 -2.5
v 4.5 0 -2.5
v 4.5 1 -2.5
v 4.5 3 -2.5
v 4.5 4 -2.5
v -3.5 0 -3.5
v -3.5 1 -3.5
v -3.5 3 -3.5
v -3.5 4 -3.5
v -2.5 0 -3.5
v -2.5 1 -3.5
v -2.5 2 -3.5
v -2.5 3 -3.5
v -2.5 4 -3.5
v -2.5 5 -3.5
v -1.5 1 -3.5
v -1.5 2 -3.5
v -0.5 2 -3.5
v -0.5 3 -3.5
v 1.5 1 -3.5
v 1.5 2 -3.5
v 2.5 0 -3.5
v 2.5 1 -3.5
v 2.5 2 -3.5
v 2.5 3 -3.5
v 2.5 4 -3.5
v 2.5 5 -3.5
v 3.5 0 -3.5
v 3.5 1 -3.5
v 3.5 2 -3.5
v 3.5 3 -3.5
v 3.5 4 -3.5
v -2.5 0 -4.5
v -2.5 1 -4.5
v -2.5 3 -4.5
v -2.5 4 -4.5
v -1.5 2 -4.5
v -1.5 3 -4.5
v -0.5 2 -4.5
v -0.5 3 -4.5
v 2.5 0 -4.5
v 2.5 1 -4.5
v 2.5 3 -4.5
v 2.5 4 -4.5
v -2.5 0 4.5
v 2.5 0 4.5
v -3.5 0 3.5
v -2.5 0 3.5
v 2.5 0 3.5
v 3.5 0 3.5
v -4.5 0 2.5
v -3.5 0 2.5
v 3.5 0 2.5
v 4.5 0 2.5
v -4.5 0 -2.5
v -3.5 0 -2.5
v 3.5 0 -2.5
v 4.5 0 -2.5
v -3.5 0 -3.5
v -2.5 0 -3.5
v 2.5 0 -3.5
v 3.5 0 -3.5
v -2.5 0 -4.5
v 2.5 0 -4.5
v 1.5 2 3.5
v 2.5 2 3.5
v 1.5 2 2.5
v 2.5 2 2.5
v 3.5 2 1.5
v 4.5 2 1.5
v -0.5 2 0.5
v 0.5 2 0.5
v 3.5 2 0.5
v 4.5 2 0.5
v -0.5 2 -0.5
v 0.5 2 -0.5
v -3.5 2 -1.5
v -2.5 2 -1.5
v -3.5 2 -2.5
v -2.5 2 -2.5
v 1.5 2 -2.5
v 2.5 2 -2.5
v -1.5 2 -3.5
v -0.5 2 -3.5
v 1.5 2 -3.5
v 2.5 2 -3.5
v -1.5 2 -4.5
v -0.5 2 -4.5
v -2.5 3 4.5
v 2.5 3 4.5
v -3.5 3 3.5
v -2.5 3 3.5
v -1.5 3 3.5
v -0.5 3 3.5
v 2.5 3 3.5
v 3.5 3 3.5
v -4.5 3 2.5
v -3.5 3 2.5
v -2.5 3 2.5
v -1.5 3 2.5
v 3.5 3 2.5
v 4.5 3 2.5
v -3.5 3 1.5
v -2.5 3 1.5
v 2.5 3 1.5
v 4.5 3 1.5
v -3.5 3 0.5
v 3.5 3 0.5
v 4.5 3 0.5
v 2.5 3 -1.5
v 3.5 3 -1.5
v -4.5 3 -2.5
v -3.5 3 -2.5
v -1.5 3 -2.5
v 3.5 3 -2.5
v 4.5 3 -2.5
v -3.5 3 -3.5
v -2.5 3 -3.5
v -0.5 3 -3.5
v 2.5 3 -3.5
v 3.5 3 -3.5
v -2.5 3 -4.5
v -1.5 3 -4.5
v -0.5 3 -4.5
v 2.5 3 -4.5
v -2.5 1 4.5
v -1.5 1 4.5
v -0.5 1 4.5
v 2.5 1 4.5
v -3.5 1 3.5
v -2.5 1 3.5
v -1.5 1 3.5
v -0.5 1 3.5
v 1.5 1 3.5
v 2.5 1 3.5
v 3.5 1 3.5
v -4.5 1 2.5
v -3.5 1 2.5
v -2.5 1 2.5
v -1.5 1 2.5
v 1.5 1 2.5
v 2.5 1 2.5
v 3.5 1 2.5
v 4.5 1 2.5
v -4.5 1 1.5
v -3.5 1 1.5
v -2.5 1 1.5
v 2.5 1 1.5
v 3.5 1 1.5
v -4.5 1 0.5
v -3.5 1 0.5
v -0.5 1 0.5
v 0.5 1 0.5
v -0.5 1 -0.5
v 0.5 1 -0.5
v -3.5 1 -1.5
v -2.5 1 -1.5
v 3.5 1 -1.5
v -4.5 1 -2.5
v -3.5 1 -2.5
v -2.5 1 -2.5
v 1.5 1 -2.5
v 2.5 1 -2.5
v 3.5 1 -2.5
v 4.5 1 -2.5
v -3.5 1 -3.5
v -2.5 1 -3.5
v -1.5 1 -3.5
v 1.5 1 -3.5
v 2.5 1 -3.5
v -2.5 1 -4.5
v 2.5 1 -4.5
v -1.5 2 4.5
v -0.5 2 4.5
v -1.5 2 3.5
v -0.5 2 3.5
v -4.5 2 1.5
v -3.5 2 1.5
v -4.5 2 0.5
v -3.5 2 0.5
v 2.5 2 -1.5
v 3.5 2 -1.5
v -2.5 2 -2.5
v -1.5 2 -2.5
v -2.5 2 -3.5
v -1.5 2 -3.5
v 2.5 2 -3.5
v 3.5 2 -3.5
v -2.5 4 4.5
v 2.5 4 4.5
v -3.5 4 3.5
v -2.5 4 3.5
v 2.5 4 3.5
v 3.5 4 3.5
v -4.5 4 2.5
v -3.5 4 2.5
v -2.5 4 2.5
v 2.5 4 2.5
v 3.5 4 2.5
v 4.5 4 2.5
v -3.5 4 0.5
v -3.5 4 -0.5
v -4.5 4 -2.5
v -3.5 4 -2.5
v -2.5 4 -2.5
v 2.5 4 -2.5
v 3.5 4 -2.5
v 4.5 4 -2.5
v -3.5 4 -3.5
v -2.5 4 -3.5
v 2.5 4 -3.5
v 3.5 4 -3.5
v -2.5 4 -4.5
v 2.5 4 -4.5
v -2.5 5 3.5
v 2.5 5 3.5
v -3.5 5 2.5
v -2.5 5 2.5
v -1.5 5 2.5
v -0.5 5 2.5
v 0.5 5 2.5
v 2.5 5 2.5
v 3.5 5 2.5
v -2.5 5 1.5
v -1.5 5 1.5
v -0.5 5 1.5
v 0.5 5 1.5
v 1.5 5 1.5
v 2.5 5 1.5
v -3.5 5 0.5
v -2.5 5 0.5
v -0.5 5 0.5
v 0.5 5 0.5
v 1.5 5 0.5
v 2.5 5 0.5
v -3.5 5 -0.5
v -2.5 5 -0.5
v -0.5 5 -0.5
v 0.5 5 -0.5
v 1.5 5 -0.5
v 2.5 5 -0.5
v -1.5 5 -1.5
v -0.5 5 -1.5
v 1.5 5 -1.5
v 2.5 5 -1.5
v -3.5 5 -2.5
v -2.5 5 -2.5
v -1.5 5 -2.5
v -0.5 5 -2.5
v 2.5 5 -2.5
v 3.5 5 -2.5
v -2.5 5 -3.5
v 2.5 5 -3.5

# faces
f 3/2/1 2/2/1 1/2/1
f 4/2/1 2/2/1 3/2/1
f 5/2/1 2/2/1 4/2/1
f 6/2/1 2/2/1 5/2/1
f 7/5/1 5/5/1 4/5/1
f 8/5/1 5/5/1 7/5/1
f 11/2/1 10/2/1 9/2/1
f 12/2/1 10/2/1 11/2/1
f 17/2/1 14/2/1 13/2/1
f 18/2/1 14/2/1 17/2/1
f 21/2/1 16/2/1 15/2/1
f 22/2/1 16/2/1 21/2/1
f 24/3/1 20/3/1 19/3/1
f 25/3/1 20/3/1 24/3/1
f 29/5/1 24/5/1 23/5/1
f 30/4/1 25/4/1 24/4/1
f 30/5/1 24/5/1 29/5/1
f 30/4/1 26/4/1 25/4/1
f 31/4/1 26/4/1 30/4/1
f 33/2/1 28/2/1 27/2/1
f 34/2/1 28/2/1 33/2/1
f 37/2/1 32/2/1 31/2/1
f 38/2/1 32/2/1 37/2/1
f 39/2/1 35/2/1 34/2/1
f 40/1/1 36/1/1 35/1/1
f 40/2/1 35/2/1 39/2/1
f 41/2/1 37/2/1 36/2/1
f 41/1/1 36/1/1 40/1/1
f 42/2/1 37/2/1 41/2/1
f 47/2/1 44/2/1 43/2/1
f 48/2/1 44/2/1 47/2/1
f 53/2/1 46/2/1 45/2/1
f 54/2/1 46/2/1 53/2/1
f 55/3/1 50/3/1 49/3/1
f 56/3/1 50/3/1 55/3/1
f 57/3/1 52/3/1 51/3/1
f 58/5/1 53/5/1 52/5/1
f 58/3/1 52/3/1 57/3/1
f 59/5/1 53/5/1 58/5/1
f 62/5/1 56/5/1 55/5/1
f 63/5/1 56/5/1 62/5/1
f 66/2/1 61/2/1 60/2/1
f 67/2/1 61/2/1 66/2/1
f 70/2/1 65/2/1 64/2/1
f 71/2/1 65/2/1 70/2/1
f 72/2/1 68/2/1 67/2/1
f 73/2/1 68/2/1 72/2/1
f 74/2/1 70/2/1 69/2/1
f 75/2/1 70/2/1 74/2/1
f 79/5/1 77/5/1 76/5/1
f 80/3/1 78/3/1 77/3/1
f 80/5/1 77/5/1 79/5/1
f 81/3/1 78/3/1 80/3/1
f 85/5/1 81/5/1 80/5/1
f 86/5/1 81/5/1 85/5/1
f 87/5/1 84/5/1 83/5/1
f 87/5/1 83/5/1 82/5/1
f 88/5/1 84/5/1 87/5/1
f 91/3/1 90/3/1 89/3/1
f 92/3/1 90/3/1 91/3/1
f 95/5/1 94/5/1 93/5/1
f 96/5/1 94/5/1 95/5/1
f 97/5/2 98/5/2 101/5/2
f 101/5/2 98/5/2 102/5/2
f 99/3/2 100/3/2 103/3/2
f 103/3/2 100/3/2 104/3/2
f 105/5/2 106/5/2 107/5/2
f 107/5/2 106/5/2 108/5/2
f 109/3/2 110/3/2 113/3/2
f 113/3/2 110/3/2 114/3/2
f 111/3/2 112/3/2 115/3/2
f 115/3/2 112/3/2 116/3/2
f 117/2/2 118/2/2 121/2/2
f 121/2/2 118/2/2 122/2/2
f 119/2/2 120/2/2 125/2/2
f 125/2/2 120/2/2 126/2/2
f 123/3/2 124/3/2 128/3/2
f 128/3/2 124/3/2 129/3/2
f 127/4/2 128/4/2 133/4/2
f 128/4/2 129/4/2 133/4/2
f 133/4/2 129/4/2 134/4/2
f 130/4/2 131/4/2 135/4/2
f 135/4/2 131/4/2 136/4/2
f 132/2/2 133/2/2 138/2/2
f 138/2/2 133/2/2 139/2/2
f 136/2/2 137/2/2 142/2/2
f 142/2/2 137/2/2 143/2/2
f 139/2/2 140/2/2 144/2/2
f 144/2/2 140/2/2 145/2/2
f 141/2/2 142/2/2 146/2/2
f 146/2/2 142/2/2 147/2/2
f 148/2/2 149/2/2 152/2/2
f 152/2/2 149/2/2 153/2/2
f 150/2/2 151/2/2 156/2/2
f 156/2/2 151/2/2 157/2/2
f 154/3/2 155/3/2 158/3/2
f 158/3/2 155/3/2 159/3/2
f 156/5/2 157/5/2 160/5/2
f 159/3/2 155/3/2 160/3/2
f 155/5/2 156/5/2 160/5/2
f 160/5/2 157/5/2 161/5/2
f 159/5/2 160/5/2 164/5/2
f 164/5/2 160/5/2 165/5/2
f 162/2/2 163/2/2 168/2/2
f 168/2/2 163/2/2 169/2/2
f 166/2/2 167/2/2 170/2/2
f 170/2/2 167/2/2 171/2/2
f 169/2/2 170/2/2 172/2/2
f 172/2/2 170/2/2 173/2/2
f 174/2/2 175/2/2 176/2/2
f 176/2/2 175/2/2 177/2/2
f 178/5/2 179/5/2 181/5/2
f 181/5/2 179/5/2 182/5/2
f 180/2/2 181/2/2 184/2/2
f 182/2/2 183/2/2 184/2/2
f 181/2/2 182/2/2 184/2/2
f 184/2/2 183/2/2 185/2/2
f 190/2/3 187/2/3 186/2/3
f 192/2/3 190/2/3 186/2/3
f 192/5/3 191/5/3 190/5/3
f 193/5/3 191/5/3 192/5/3
f 194/2/3 192/2/3 186/2/3
f 195/2/3 192/2/3 194/2/3
f 196/2/3 189/2/3 188/2/3
f 197/2/3 189/2/3 196/2/3
f 202/2/3 199/2/3 198/2/3
f 203/2/3 199/2/3 202/2/3
f 204/2/3 201/2/3 200/2/3
f 205/2/3 201/2/3 204/2/3
f 210/5/3 208/5/3 207/5/3
f 211/5/3 208/5/3 210/5/3
f 212/3/3 210/3/3 209/3/3
f 213/4/3 211/4/3 210/4/3
f 213/3/3 210/3/3 212/3/3
f 216/4/3 211/4/3 213/4/3
f 217/4/3 211/4/3 216/4/3
f 218/2/3 206/2/3 205/2/3
f 219/2/3 206/2/3 218/2/3
f 220/2/3 215/2/3 214/2/3
f 221/2/3 215/2/3 220/2/3
f 222/2/3 218/2/3 217/2/3
f 223/2/3 218/2/3 222/2/3
f 228/2/3 225/2/3 224/2/3
f 229/2/3 225/2/3 228/2/3
f 230/2/3 227/2/3 226/2/3
f 231/2/3 227/2/3 230/2/3
f 236/2/3 232/2/3 231/2/3
f 237/2/3 232/2/3 236/2/3
f 238/3/3 234/3/3 233/3/3
f 239/5/3 235/5/3 234/5/3
f 239/3/3 234/3/3 238/3/3
f 240/5/3 235/5/3 239/5/3
f 243/3/3 242/3/3 241/3/3
f 244/3/3 242/3/3 243/3/3
f 250/2/3 246/2/3 245/2/3
f 251/2/3 246/2/3 250/2/3
f 252/2/3 248/2/3 247/2/3
f 253/2/3 248/2/3 252/2/3
f 254/2/3 250/2/3 249/2/3
f 255/2/3 250/2/3 254/2/3
f 258/5/3 257/5/3 256/5/3
f 259/5/3 257/5/3 258/5/3
f 261/3/3 259/3/3 258/3/3
f 262/5/3 260/5/3 259/5/3
f 262/3/3 259/3/3 261/3/3
f 263/5/3 260/5/3 262/5/3
f 267/3/3 265/3/3 264/3/3
f 268/5/3 266/5/3 265/5/3
f 268/3/3 265/3/3 267/3/3
f 269/5/3 266/5/3 268/5/3
f 270/5/3 266/5/3 269/5/3
f 273/3/3 272/3/3 271/3/3
f 274/3/3 272/3/3 273/3/3
f 275/5/4 276/5/4 277/5/4
f 277/5/4 276/5/4 278/5/4
f 279/3/4 280/3/4 281/3/4
f 281/3/4 280/3/4 282/3/4
f 283/5/4 284/5/4 285/5/4
f 285/5/4 284/5/4 286/5/4
f 287/3/4 288/3/4 289/3/4
f 289/3/4 288/3/4 290/3/4
f 291/5/4 292/5/4 293/5/4
f 293/5/4 292/5/4 294/5/4
f 295/2/4 296/2/4 299/2/4
f 299/2/4 296/2/4 300/2/4
f 297/2/4 298/2/4 302/2/4
f 302/2/4 298/2/4 303/2/4
f 301/4/4 302/4/4 305/4/4
f 303/2/4 304/2/4 306/2/4
f 306/2/4 304/2/4 307/2/4
f 305/4/4 302/4/4 308/4/4
f 308/4/4 302/4/4 309/4/4
f 310/3/4 311/3/4 312/3/4
f 312/3/4 311/3/4 313/3/4
f 314/2/4 315/2/4 319/2/4
f 319/2/4 315/2/4 320/2/4
f 316/2/4 317/2/4 321/2/4
f 321/2/4 317/2/4 322/2/4
f 318/2/4 319/2/4 323/2/4
f 323/2/4 319/2/4 324/2/4
f 325/2/4 326/2/4 329/2/4
f 329/2/4 326/2/4 330/2/4
f 327/2/4 328/2/4 332/2/4
f 332/2/4 328/2/4 333/2/4
f 330/5/4 331/5/4 335/5/4
f 335/5/4 331/5/4 336/5/4
f 335/3/4 336/3/4 337/3/4
f 335/3/4 337/3/4 339/3/4
f 337/4/4 338/4/4 340/4/4
f 339/3/4 337/3/4 340/3/4
f 340/4/4 338/4/4 343/4/4
f 343/4/4 338/4/4 344/4/4
f 333/2/4 334/2/4 345/2/4
f 345/2/4 334/2/4 346/2/4
f 341/2/4 342/2/4 347/2/4
f 342/5/4 343/5/4 348/5/4
f 347/2/4 342/2/4 348/2/4
f 348/5/4 343/5/4 349/5/4
f 344/2/4 345/2/4 350/2/4
f 350/2/4 345/2/4 351/2/4
f 354/2/4 355/2/4 357/2/4
f 356/5/4 357/5/4 358/5/4
f 357/2/4 355/2/4 359/2/4
f 358/5/4 357/5/4 359/5/4
f 352/2/4 353/2/4 360/2/4
f 360/2/4 353/2/4 361/2/4
f 359/2/4 355/2/4 362/2/4
f 362/2/4 355/2/4 363/2/4
f 367/2/5 365/2/5 364/2/5
f 368/2/5 365/2/5 367/2/5
f 371/2/5 367/2/5 366/2/5
f 371/2/5 369/2/5 368/2/5
f 371/2/5 368/2/5 367/2/5
f 372/2/5 369/2/5 371/2/5
f 374/2/5 371/2/5 370/2/5
f 374/2/5 373/2/5 372/2/5
f 374/2/5 372/2/5 371/2/5
f 375/2/5 373/2/5 374/2/5
f 376/2/5 373/2/5 375/2/5
f 377/2/5 373/2/5 376/2/5
f 378/2/5 376/2/5 375/2/5
f 379/2/5 376/2/5 378/2/5
f 380/2/5 376/2/5 379/2/5
f 381/2/5 376/2/5 380/2/5
f 382/2/5 380/2/5 379/2/5
f 383/2/5 380/2/5 382/2/5
f 386/4/5 385/4/5 384/4/5
f 387/4/5 385/4/5 386/4/5
f 392/5/5 389/5/5 388/5/5
f 393/5/5 389/5/5 392/5/5
f 394/5/5 391/5/5 390/5/5
f 395/5/5 391/5/5 394/5/5
f 398/4/5 397/4/5 396/4/5
f 399/4/5 397/4/5 398/4/5
f 404/4/5 401/4/5 400/4/5
f 405/4/5 401/4/5 404/4/5
f 406/5/5 403/5/5 402/5/5
f 407/5/5 403/5/5 406/5/5
f 411/2/5 409/2/5 408/2/5
f 412/2/5 409/2/5 411/2/5
f 413/2/5 409/2/5 412/2/5
f 414/2/5 409/2/5 413/2/5
f 417/2/5 411/2/5 410/2/5
f 417/2/5 412/2/5 411/2/5
f 418/2/5 412/2/5 417/2/5
f 419/2/5 412/2/5 418/2/5
f 420/2/5 415/2/5 414/2/5
f 422/2/5 417/2/5 416/2/5
f 422/2/5 418/2/5 417/2/5
f 423/2/5 418/2/5 422/2/5
f 424/2/5 421/2/5 420/2/5
f 424/2/5 420/2/5 414/2/5
f 425/2/5 421/2/5 424/2/5
f 426/2/5 422/2/5 416/2/5
f 430/2/5 428/2/5 427/2/5
f 431/2/5 426/2/5 416/2/5
f 432/2/5 426/2/5 431/2/5
f 434/2/5 430/2/5 429/2/5
f 434/2/5 428/2/5 430/2/5
f 435/2/5 428/2/5 434/2/5
f 436/2/5 433/2/5 432/2/5
f 437/2/5 433/2/5 436/2/5
f 439/2/5 434/2/5 429/2/5
f 440/2/5 434/2/5 439/2/5
f 441/2/5 433/2/5 437/2/5
f 442/2/5 433/2/5 441/2/5
f 443/2/5 439/2/5 438/2/5
f 444/2/5 439/2/5 443/2/5
f 445/2/6 446/2/6 450/2/6
f 450/2/6 446/2/6 451/2/6
f 447/2/6 448/2/6 452/2/6
f 452/2/6 448/2/6 453/2/6
f 453/2/6 448/2/6 454/2/6
f 450/2/6 451/2/6 457/2/6
f 449/2/6 450/2/6 457/2/6
f 457/2/6 451/2/6 458/2/6
f 458/2/6 451/2/6 459/2/6
f 453/2/6 454/2/6 460/2/6
f 454/2/6 455/2/6 460/2/6
f 460/2/6 455/2/6 461/2/6
f 461/2/6 455/2/6 462/2/6
f 457/2/6 458/2/6 464/2/6
f 456/2/6 457/2/6 464/2/6
f 464/2/6 458/2/6 465/2/6
f 465/2/6 458/2/6 466/2/6
f 462/2/6 463/2/6 467/2/6
f 461/2/6 462/2/6 467/2/6
f 467/2/6 463/2/6 468/2/6
f 471/2/6 472/2/6 473/2/6
f 473/2/6 472/2/6 474/2/6
f 469/2/6 470/2/6 475/2/6
f 468/2/6 463/2/6 477/2/6
f 475/2/6 476/2/6 478/2/6
f 469/2/6 475/2/6 478/2/6
f 478/2/6 476/2/6 479/2/6
f 479/2/6 476/2/6 480/2/6
f 477/2/6 463/2/6 483/2/6
f 483/2/6 463/2/6 484/2/6
f 479/2/6 480/2/6 485/2/6
f 485/2/6 480/2/6 486/2/6
f 481/2/6 482/2/6 488/2/6
f 488/2/6 482/2/6 489/2/6
f 486/2/6 487/2/6 490/2/6
f 488/2/6 489/2/6 490/2/6
f 487/2/6 488/2/6 490/2/6
f 490/2/6 489/2/6 491/2/6
f 492/5/6 493/5/6 494/5/6
f 494/5/6 493/5/6 495/5/6
f 496/5/6 497/5/6 498/5/6
f 498/5/6 497/5/6 499/5/6
f 502/5/6 503/5/6 504/5/6
f 504/5/6 503/5/6 505/5/6
f 500/5/6 501/5/6 506/5/6
f 506/5/6 501/5/6 507/5/6
f 508/2/6 509/2/6 511/2/6
f 511/2/6 509/2/6 512/2/6
f 510/2/6 511/2/6 515/2/6
f 515/2/6 511/2/6 516/2/6
f 512/2/6 513/2/6 517/2/6
f 517/2/6 513/2/6 518/2/6
f 514/2/6 515/2/6 520/2/6
f 514/2/6 520/2/6 521/2/6
f 514/2/6 521/2/6 522/2/6
f 522/2/6 521/2/6 523/2/6
f 518/2/6 519/2/6 526/2/6
f 526/2/6 519/2/6 527/2/6
f 523/2/6 524/2/6 528/2/6
f 528/2/6 524/2/6 529/2/6
f 525/2/6 526/2/6 530/2/6
f 530/2/6 526/2/6 531/2/6
f 529/2/6 530/2/6 532/2/6
f 532/2/6 530/2/6 533/2/6
f 534/2/6 535/2/6 537/2/6
f 537/2/6 535/2/6 538/2/6
f 538/2/6 535/2/6 539/2/6
f 539/2/6 535/2/6 540/2/6
f 540/2/6 535/2/6 541/2/6
f 536/2/6 537/2/6 543/2/6
f 537/1/6 538/1/6 543/1/6
f 538/2/6 539/2/6 544/2/6
f 543/1/6 538/1/6 544/1/6
f 539/1/6 540/1/6 545/1/6
f 544/2/6 539/2/6 545/2/6
f 541/2/6 542/2/6 546/2/6
f 545/1/6 540/1/6 546/1/6
f 540/2/6 541/2/6 546/2/6
f 546/2/6 542/2/6 547/2/6
f 547/2/6 542/2/6 548/2/6
f 544/2/6 545/2/6 549/2/6
f 543/2/6 544/2/6 549/2/6
f 536/2/6 543/2/6 549/2/6
f 546/2/6 547/2/6 549/2/6
f 545/2/6 546/2/6 549/2/6
f 549/2/6 547/2/6 550/2/6
f 550/2/6 547/2/6 551/2/6
f 551/2/6 547/2/6 552/2/6
f 547/1/6 548/1/6 553/1/6
f 552/2/6 547/2/6 553/2/6
f 548/2/6 542/2/6 554/2/6
f 553/1/6 548/1/6 554/1/6
f 549/1/6 550/1/6 555/1/6
f 550/2/6 551/2/6 556/2/6
f 555/1/6 550/1/6 556/1/6
f 551/1/6 552/1/6 557/1/6
f 556/2/6 551/2/6 557/2/6
f 552/2/6 553/2/6 558/2/6
f 557/1/6 552/1/6 558/1/6
f 553/2/6 554/2/6 558/2/6
f 558/2/6 554/2/6 559/2/6
f 554/2/6 542/2/6 560/2/6
f 559/2/6 554/2/6 560/2/6
f 556/2/6 557/2/6 561/2/6
f 555/2/6 556/2/6 561/2/6
f 558/2/6 559/2/6 561/2/6
f 557/2/6 558/2/6 561/2/6
f 561/2/6 559/2/6 562/2/6
f 559/1/6 560/1/6 563/1/6
f 562/2/6 559/2/6 563/2/6
f 560/2/6 542/2/6 564/2/6
f 563/1/6 560/1/6 564/1/6
f 555/2/6 561/2/6 565/2/6
f 565/2/6 561/2/6 566/2/6
f 561/1/6 562/1/6 567/1/6
f 566/2/6 561/2/6 567/2/6
f 562/2/6 563/2/6 568/2/6
f 567/1/6 562/1/6 568/1/6
f 563/2/6 564/2/6 568/2/6
f 564/2/6 542/2/6 569/2/6
f 568/2/6 564/2/6 569/2/6
f 569/2/6 542/2/6 570/2/6
f 566/2/6 567/2/6 571/2/6
f 568/2/6 569/2/6 571/2/6
f 567/2/6 568/2/6 571/2/6
f 571/2/6 569/2/6 572/2/6
