# MagicaVoxel @ Ephtracy

# group
g grenade

# material
mtllib grenade.mtl
usemtl palette

# normals
vn -1 0 0
vn 1 0 0
vn 0 0 1
vn 0 0 -1
vn 0 -1 0
vn 0 1 0

# texcoords
vt 0.845703 0.5
vt 0.876953 0.5
vt 0.970703 0.5

# verts
v -3 1 1.5
v -3 1 0.5
v -3 1 -0.5
v -3 1 -1.5
v -3 2 1.5
v -3 2 0.5
v -3 2 -0.5
v -3 2 -1.5
v -3 3 1.5
v -3 3 0.5
v -3 3 -0.5
v -3 3 -1.5
v -3 4 1.5
v -3 4 0.5
v -3 4 -0.5
v -3 4 -1.5
v -2 0 1.5
v -2 0 0.5
v -2 0 -0.5
v -2 0 -1.5
v -2 1 2.5
v -2 1 1.5
v -2 1 0.5
v -2 1 -0.5
v -2 1 -1.5
v -2 1 -2.5
v -2 2 2.5
v -2 2 1.5
v -2 2 -1.5
v -2 2 -2.5
v -2 3 2.5
v -2 3 1.5
v -2 3 -1.5
v -2 3 -2.5
v -2 4 2.5
v -2 4 1.5
v -2 4 0.5
v -2 4 -0.5
v -2 4 -1.5
v -2 4 -2.5
v -2 5 1.5
v -2 5 0.5
v -2 5 -0.5
v -2 5 -1.5
v -2 6 0.5
v -2 6 -0.5
v -2 7 0.5
v -2 7 -0.5
v -1 5 0.5
v -1 5 -0.5
v -1 6 0.5
v -1 6 -0.5
v -1 7 0.5
v -1 7 -0.5
v -1 8 0.5
v -1 8 -0.5
v 0 6 1.5
v 0 6 0.5
v 0 6 -0.5
v 0 6 -1.5
v 0 7 1.5
v 0 7 0.5
v 0 7 -0.5
v 0 7 -1.5
v 2 6 0.5
v 2 6 -0.5
v 2 7 0.5
v 2 7 -0.5
v 0 5 0.5
v 0 5 -0.5
v 0 6 0.5
v 0 6 -0.5
v 0 7 0.5
v 0 7 -0.5
v 0 8 0.5
v 0 8 -0.5
v 1 0 1.5
v 1 0 0.5
v 1 0 -0.5
v 1 0 -1.5
v 1 1 2.5
v 1 1 1.5
v 1 1 0.5
v 1 1 -0.5
v 1 1 -1.5
v 1 1 -2.5
v 1 2 2.5
v 1 2 1.5
v 1 2 -1.5
v 1 2 -2.5
v 1 3 2.5
v 1 3 1.5
v 1 3 -1.5
v 1 3 -2.5
v 1 4 2.5
v 1 4 1.5
v 1 4 0.5
v 1 4 -0.5
v 1 4 -1.5
v 1 4 -2.5
v 1 5 1.5
v 1 5 0.5
v 1 5 -0.5
v 1 5 -1.5
v 1 6 0.5
v 1 6 -0.5
v 1 7 0.5
v 1 7 -0.5
v 2 1 1.5
v 2 1 0.5
v 2 1 -0.5
v 2 1 -1.5
v 2 2 1.5
v 2 2 0.5
v 2 2 -0.5
v 2 2 -1.5
v 2 3 1.5
v 2 3 0.5
v 2 3 -0.5
v 2 3 -1.5
v 2 4 1.5
v 2 4 0.5
v 2 4 -0.5
v 2 4 -1.5
v 3 6 1.5
v 3 6 -1.5
v 3 7 1.5
v 3 7 -1.5
v -2 1 2.5
v -2 2 2.5
v -2 3 2.5
v -2 4 2.5
v -1 1 2.5
v -1 2 2.5
v -1 3 2.5
v -1 4 2.5
v 0 1 2.5
v 0 2 2.5
v 0 3 2.5
v 0 4 2.5
v 1 1 2.5
v 1 2 2.5
v 1 3 2.5
v 1 4 2.5
v -3 1 1.5
v -3 2 1.5
v -3 3 1.5
v -3 4 1.5
v -2 0 1.5
v -2 1 1.5
v -2 2 1.5
v -2 3 1.5
v -2 4 1.5
v -2 5 1.5
v -1 0 1.5
v -1 1 1.5
v -1 4 1.5
v -1 5 1.5
v 0 0 1.5
v 0 1 1.5
v 0 4 1.5
v 0 5 1.5
v 0 6 1.5
v 0 7 1.5
v 1 0 1.5
v 1 1 1.5
v 1 2 1.5
v 1 3 1.5
v 1 4 1.5
v 1 5 1.5
v 2 1 1.5
v 2 2 1.5
v 2 3 1.5
v 2 4 1.5
v 3 6 1.5
v 3 7 1.5
v -2 6 0.5
v -2 7 0.5
v -1 5 0.5
v -1 6 0.5
v -1 7 0.5
v -1 8 0.5
v 0 5 0.5
v 0 6 0.5
v 0 7 0.5
v 0 8 0.5
v 1 6 -0.5
v 1 7 -0.5
v 2 6 -0.5
v 2 7 -0.5
v 1 6 0.5
v 1 7 0.5
v 2 6 0.5
v 2 7 0.5
v -2 6 -0.5
v -2 7 -0.5
v -1 5 -0.5
v -1 6 -0.5
v -1 7 -0.5
v -1 8 -0.5
v 0 5 -0.5
v 0 6 -0.5
v 0 7 -0.5
v 0 8 -0.5
v -3 1 -1.5
v -3 2 -1.5
v -3 3 -1.5
v -3 4 -1.5
v -2 0 -1.5
v -2 1 -1.5
v -2 2 -1.5
v -2 3 -1.5
v -2 4 -1.5
v -2 5 -1.5
v -1 0 -1.5
v -1 1 -1.5
v -1 4 -1.5
v -1 5 -1.5
v 0 0 -1.5
v 0 1 -1.5
v 0 4 -1.5
v 0 5 -1.5
v 0 6 -1.5
v 0 7 -1.5
v 1 0 -1.5
v 1 1 -1.5
v 1 2 -1.5
v 1 3 -1.5
v 1 4 -1.5
v 1 5 -1.5
v 2 1 -1.5
v 2 2 -1.5
v 2 3 -1.5
v 2 4 -1.5
v 3 6 -1.5
v 3 7 -1.5
v -2 1 -2.5
v -2 2 -2.5
v -2 3 -2.5
v -2 4 -2.5
v -1 1 -2.5
v -1 2 -2.5
v -1 3 -2.5
v -1 4 -2.5
v 0 1 -2.5
v 0 2 -2.5
v 0 3 -2.5
v 0 4 -2.5
v 1 1 -2.5
v 1 2 -2.5
v 1 3 -2.5
v 1 4 -2.5
v -2 0 1.5
v -1 0 1.5
v 0 0 1.5
v 1 0 1.5
v -2 0 0.5
v -1 0 0.5
v 0 0 0.5
v 1 0 0.5
v -2 0 -0.5
v -1 0 -0.5
v 0 0 -0.5
v 1 0 -0.5
v -2 0 -1.5
v -1 0 -1.5
v 0 0 -1.5
v 1 0 -1.5
v -2 1 2.5
v -1 1 2.5
v 0 1 2.5
v 1 1 2.5
v -3 1 1.5
v -2 1 1.5
v -1 1 1.5
v 0 1 1.5
v 1 1 1.5
v 2 1 1.5
v -3 1 0.5
v -2 1 0.5
v 1 1 0.5
v 2 1 0.5
v -3 1 -0.5
v -2 1 -0.5
v 1 1 -0.5
v 2 1 -0.5
v -3 1 -1.5
v -2 1 -1.5
v -1 1 -1.5
v 0 1 -1.5
v 1 1 -1.5
v 2 1 -1.5
v -2 1 -2.5
v -1 1 -2.5
v 0 1 -2.5
v 1 1 -2.5
v 0 6 1.5
v 3 6 1.5
v -2 6 0.5
v -1 6 0.5
v 0 6 0.5
v 1 6 0.5
v 2 6 0.5
v -2 6 -0.5
v -1 6 -0.5
v 0 6 -0.5
v 1 6 -0.5
v 2 6 -0.5
v 0 6 -1.5
v 3 6 -1.5
v -2 4 2.5
v -1 4 2.5
v 0 4 2.5
v 1 4 2.5
v -3 4 1.5
v -2 4 1.5
v -1 4 1.5
v 0 4 1.5
v 1 4 1.5
v 2 4 1.5
v -3 4 0.5
v -2 4 0.5
v 1 4 0.5
v 2 4 0.5
v -3 4 -0.5
v -2 4 -0.5
v 1 4 -0.5
v 2 4 -0.5
v -3 4 -1.5
v -2 4 -1.5
v -1 4 -1.5
v 0 4 -1.5
v 1 4 -1.5
v 2 4 -1.5
v -2 4 -2.5
v -1 4 -2.5
v 0 4 -2.5
v 1 4 -2.5
v -2 5 1.5
v -1 5 1.5
v 0 5 1.5
v 1 5 1.5
v -2 5 0.5
v -1 5 0.5
v 0 5 0.5
v 1 5 0.5
v -2 5 -0.5
v -1 5 -0.5
v 0 5 -0.5
v 1 5 -0.5
v -2 5 -1.5
v -1 5 -1.5
v 0 5 -1.5
v 1 5 -1.5
v 0 7 1.5
v 3 7 1.5
v -2 7 0.5
v -1 7 0.5
v 0 7 0.5
v 1 7 0.5
v 2 7 0.5
v -2 7 -0.5
v -1 7 -0.5
v 0 7 -0.5
v 1 7 -0.5
v 2 7 -0.5
v 0 7 -1.5
v 3 7 -1.5
v -1 8 0.5
v 0 8 0.5
v -1 8 -0.5
v 0 8 -0.5

# faces
f 5/1/1 2/1/1 1/1/1
f 6/3/1 3/3/1 2/3/1
f 6/1/1 2/1/1 5/1/1
f 7/1/1 4/1/1 3/1/1
f 7/3/1 3/3/1 6/3/1
f 8/1/1 4/1/1 7/1/1
f 9/3/1 6/3/1 5/3/1
f 10/1/1 7/1/1 6/1/1
f 10/3/1 6/3/1 9/3/1
f 11/3/1 8/3/1 7/3/1
f 11/1/1 7/1/1 10/1/1
f 12/3/1 8/3/1 11/3/1
f 13/1/1 10/1/1 9/1/1
f 14/3/1 11/3/1 10/3/1
f 14/1/1 10/1/1 13/1/1
f 15/1/1 12/1/1 11/1/1
f 15/3/1 11/3/1 14/3/1
f 16/1/1 12/1/1 15/1/1
f 22/3/1 18/3/1 17/3/1
f 23/1/1 19/1/1 18/1/1
f 23/3/1 18/3/1 22/3/1
f 24/3/1 20/3/1 19/3/1
f 24/1/1 19/1/1 23/1/1
f 25/3/1 20/3/1 24/3/1
f 27/1/1 22/1/1 21/1/1
f 28/1/1 22/1/1 27/1/1
f 29/1/1 26/1/1 25/1/1
f 30/1/1 26/1/1 29/1/1
f 31/3/1 28/3/1 27/3/1
f 32/3/1 28/3/1 31/3/1
f 33/3/1 30/3/1 29/3/1
f 34/3/1 30/3/1 33/3/1
f 35/1/1 32/1/1 31/1/1
f 36/1/1 32/1/1 35/1/1
f 39/1/1 34/1/1 33/1/1
f 40/1/1 34/1/1 39/1/1
f 41/3/1 37/3/1 36/3/1
f 42/1/1 38/1/1 37/1/1
f 42/3/1 37/3/1 41/3/1
f 43/3/1 39/3/1 38/3/1
f 43/1/1 38/1/1 42/1/1
f 44/3/1 39/3/1 43/3/1
f 47/2/1 46/2/1 45/2/1
f 48/2/1 46/2/1 47/2/1
f 51/2/1 50/2/1 49/2/1
f 52/2/1 50/2/1 51/2/1
f 55/2/1 54/2/1 53/2/1
f 56/2/1 54/2/1 55/2/1
f 61/2/1 58/2/1 57/2/1
f 62/2/1 58/2/1 61/2/1
f 63/2/1 60/2/1 59/2/1
f 64/2/1 60/2/1 63/2/1
f 67/2/1 66/2/1 65/2/1
f 68/2/1 66/2/1 67/2/1
f 69/2/2 70/2/2 71/2/2
f 71/2/2 70/2/2 72/2/2
f 73/2/2 74/2/2 75/2/2
f 75/2/2 74/2/2 76/2/2
f 77/3/2 78/3/2 82/3/2
f 78/1/2 79/1/2 83/1/2
f 82/3/2 78/3/2 83/3/2
f 79/3/2 80/3/2 84/3/2
f 83/1/2 79/1/2 84/1/2
f 84/3/2 80/3/2 85/3/2
f 81/1/2 82/1/2 87/1/2
f 87/1/2 82/1/2 88/1/2
f 85/1/2 86/1/2 89/1/2
f 89/1/2 86/1/2 90/1/2
f 87/3/2 88/3/2 91/3/2
f 91/3/2 88/3/2 92/3/2
f 89/3/2 90/3/2 93/3/2
f 93/3/2 90/3/2 94/3/2
f 91/1/2 92/1/2 95/1/2
f 95/1/2 92/1/2 96/1/2
f 93/1/2 94/1/2 99/1/2
f 99/1/2 94/1/2 100/1/2
f 96/3/2 97/3/2 101/3/2
f 97/1/2 98/1/2 102/1/2
f 101/3/2 97/3/2 102/3/2
f 98/3/2 99/3/2 103/3/2
f 102/1/2 98/1/2 103/1/2
f 103/3/2 99/3/2 104/3/2
f 105/2/2 106/2/2 107/2/2
f 107/2/2 106/2/2 108/2/2
f 109/1/2 110/1/2 113/1/2
f 110/3/2 111/3/2 114/3/2
f 113/1/2 110/1/2 114/1/2
f 111/1/2 112/1/2 115/1/2
f 114/3/2 111/3/2 115/3/2
f 115/1/2 112/1/2 116/1/2
f 113/3/2 114/3/2 117/3/2
f 114/1/2 115/1/2 118/1/2
f 117/3/2 114/3/2 118/3/2
f 115/3/2 116/3/2 119/3/2
f 118/1/2 115/1/2 119/1/2
f 119/3/2 116/3/2 120/3/2
f 117/1/2 118/1/2 121/1/2
f 118/3/2 119/3/2 122/3/2
f 121/1/2 118/1/2 122/1/2
f 119/1/2 120/1/2 123/1/2
f 122/3/2 119/3/2 123/3/2
f 123/1/2 120/1/2 124/1/2
f 125/2/2 126/2/2 127/2/2
f 127/2/2 126/2/2 128/2/2
f 133/1/3 130/1/3 129/1/3
f 134/3/3 131/3/3 130/3/3
f 134/1/3 130/1/3 133/1/3
f 135/1/3 132/1/3 131/1/3
f 135/3/3 131/3/3 134/3/3
f 136/1/3 132/1/3 135/1/3
f 137/3/3 134/3/3 133/3/3
f 138/1/3 135/1/3 134/1/3
f 138/3/3 134/3/3 137/3/3
f 139/3/3 136/3/3 135/3/3
f 139/1/3 135/1/3 138/1/3
f 140/3/3 136/3/3 139/3/3
f 141/1/3 138/1/3 137/1/3
f 142/3/3 139/3/3 138/3/3
f 142/1/3 138/1/3 141/1/3
f 143/1/3 140/1/3 139/1/3
f 143/3/3 139/3/3 142/3/3
f 144/1/3 140/1/3 143/1/3
f 150/1/3 146/1/3 145/1/3
f 151/3/3 147/3/3 146/3/3
f 151/1/3 146/1/3 150/1/3
f 152/1/3 148/1/3 147/1/3
f 152/3/3 147/3/3 151/3/3
f 153/1/3 148/1/3 152/1/3
f 155/3/3 150/3/3 149/3/3
f 156/3/3 150/3/3 155/3/3
f 157/3/3 154/3/3 153/3/3
f 158/3/3 154/3/3 157/3/3
f 159/1/3 156/1/3 155/1/3
f 160/1/3 156/1/3 159/1/3
f 161/1/3 158/1/3 157/1/3
f 162/1/3 158/1/3 161/1/3
f 165/3/3 160/3/3 159/3/3
f 166/3/3 160/3/3 165/3/3
f 169/3/3 162/3/3 161/3/3
f 170/3/3 162/3/3 169/3/3
f 171/1/3 167/1/3 166/1/3
f 172/3/3 168/3/3 167/3/3
f 172/1/3 167/1/3 171/1/3
f 173/1/3 169/1/3 168/1/3
f 173/3/3 168/3/3 172/3/3
f 174/1/3 169/1/3 173/1/3
f 175/2/3 164/2/3 163/2/3
f 176/2/3 164/2/3 175/2/3
f 180/2/3 178/2/3 177/2/3
f 181/2/3 178/2/3 180/2/3
f 183/2/3 180/2/3 179/2/3
f 183/2/3 182/2/3 181/2/3
f 183/2/3 181/2/3 180/2/3
f 184/2/3 182/2/3 183/2/3
f 185/2/3 182/2/3 184/2/3
f 186/2/3 182/2/3 185/2/3
f 189/2/3 188/2/3 187/2/3
f 190/2/3 188/2/3 189/2/3
f 191/2/4 192/2/4 193/2/4
f 193/2/4 192/2/4 194/2/4
f 195/2/4 196/2/4 198/2/4
f 198/2/4 196/2/4 199/2/4
f 197/2/4 198/2/4 201/2/4
f 199/2/4 200/2/4 201/2/4
f 198/2/4 199/2/4 201/2/4
f 201/2/4 200/2/4 202/2/4
f 202/2/4 200/2/4 203/2/4
f 203/2/4 200/2/4 204/2/4
f 205/1/4 206/1/4 210/1/4
f 206/3/4 207/3/4 211/3/4
f 210/1/4 206/1/4 211/1/4
f 207/1/4 208/1/4 212/1/4
f 211/3/4 207/3/4 212/3/4
f 212/1/4 208/1/4 213/1/4
f 209/3/4 210/3/4 215/3/4
f 215/3/4 210/3/4 216/3/4
f 213/3/4 214/3/4 217/3/4
f 217/3/4 214/3/4 218/3/4
f 215/1/4 216/1/4 219/1/4
f 219/1/4 216/1/4 220/1/4
f 217/1/4 218/1/4 221/1/4
f 221/1/4 218/1/4 222/1/4
f 219/3/4 220/3/4 225/3/4
f 225/3/4 220/3/4 226/3/4
f 221/3/4 222/3/4 229/3/4
f 229/3/4 222/3/4 230/3/4
f 226/1/4 227/1/4 231/1/4
f 227/3/4 228/3/4 232/3/4
f 231/1/4 227/1/4 232/1/4
f 228/1/4 229/1/4 233/1/4
f 232/3/4 228/3/4 233/3/4
f 233/1/4 229/1/4 234/1/4
f 223/2/4 224/2/4 235/2/4
f 235/2/4 224/2/4 236/2/4
f 237/1/4 238/1/4 241/1/4
f 238/3/4 239/3/4 242/3/4
f 241/1/4 238/1/4 242/1/4
f 239/1/4 240/1/4 243/1/4
f 242/3/4 239/3/4 243/3/4
f 243/1/4 240/1/4 244/1/4
f 241/3/4 242/3/4 245/3/4
f 242/1/4 243/1/4 246/1/4
f 245/3/4 242/3/4 246/3/4
f 243/3/4 244/3/4 247/3/4
f 246/1/4 243/1/4 247/1/4
f 247/3/4 244/3/4 248/3/4
f 245/1/4 246/1/4 249/1/4
f 246/3/4 247/3/4 250/3/4
f 249/1/4 246/1/4 250/1/4
f 247/1/4 248/1/4 251/1/4
f 250/3/4 247/3/4 251/3/4
f 251/1/4 248/1/4 252/1/4
f 257/3/5 254/3/5 253/3/5
f 258/1/5 255/1/5 254/1/5
f 258/3/5 254/3/5 257/3/5
f 259/3/5 256/3/5 255/3/5
f 259/1/5 255/1/5 258/1/5
f 260/3/5 256/3/5 259/3/5
f 261/1/5 258/1/5 257/1/5
f 262/3/5 259/3/5 258/3/5
f 262/1/5 258/1/5 261/1/5
f 263/1/5 260/1/5 259/1/5
f 263/3/5 259/3/5 262/3/5
f 264/1/5 260/1/5 263/1/5
f 265/3/5 262/3/5 261/3/5
f 266/1/5 263/1/5 262/1/5
f 266/3/5 262/3/5 265/3/5
f 267/3/5 264/3/5 263/3/5
f 267/1/5 263/1/5 266/1/5
f 268/3/5 264/3/5 267/3/5
f 274/1/5 270/1/5 269/1/5
f 275/3/5 271/3/5 270/3/5
f 275/1/5 270/1/5 274/1/5
f 276/1/5 272/1/5 271/1/5
f 276/3/5 271/3/5 275/3/5
f 277/1/5 272/1/5 276/1/5
f 279/1/5 274/1/5 273/1/5
f 280/1/5 274/1/5 279/1/5
f 281/1/5 278/1/5 277/1/5
f 282/1/5 278/1/5 281/1/5
f 283/3/5 280/3/5 279/3/5
f 284/3/5 280/3/5 283/3/5
f 285/3/5 282/3/5 281/3/5
f 286/3/5 282/3/5 285/3/5
f 287/1/5 284/1/5 283/1/5
f 288/1/5 284/1/5 287/1/5
f 291/1/5 286/1/5 285/1/5
f 292/1/5 286/1/5 291/1/5
f 293/1/5 289/1/5 288/1/5
f 294/3/5 290/3/5 289/3/5
f 294/1/5 289/1/5 293/1/5
f 295/1/5 291/1/5 290/1/5
f 295/3/5 290/3/5 294/3/5
f 296/1/5 291/1/5 295/1/5
f 301/2/5 298/2/5 297/2/5
f 302/2/5 298/2/5 301/2/5
f 303/2/5 298/2/5 302/2/5
f 304/2/5 300/2/5 299/2/5
f 305/2/5 300/2/5 304/2/5
f 306/2/5 302/2/5 301/2/5
f 307/2/5 302/2/5 306/2/5
f 308/2/5 298/2/5 303/2/5
f 309/2/5 307/2/5 306/2/5
f 309/2/5 308/2/5 307/2/5
f 310/2/5 298/2/5 308/2/5
f 310/2/5 308/2/5 309/2/5
f 311/1/6 312/1/6 316/1/6
f 312/3/6 313/3/6 317/3/6
f 316/1/6 312/1/6 317/1/6
f 313/1/6 314/1/6 318/1/6
f 317/3/6 313/3/6 318/3/6
f 318/1/6 314/1/6 319/1/6
f 315/1/6 316/1/6 321/1/6
f 321/1/6 316/1/6 322/1/6
f 319/1/6 320/1/6 323/1/6
f 323/1/6 320/1/6 324/1/6
f 321/3/6 322/3/6 325/3/6
f 325/3/6 322/3/6 326/3/6
f 323/3/6 324/3/6 327/3/6
f 327/3/6 324/3/6 328/3/6
f 325/1/6 326/1/6 329/1/6
f 329/1/6 326/1/6 330/1/6
f 327/1/6 328/1/6 333/1/6
f 333/1/6 328/1/6 334/1/6
f 330/1/6 331/1/6 335/1/6
f 331/3/6 332/3/6 336/3/6
f 335/1/6 331/1/6 336/1/6
f 332/1/6 333/1/6 337/1/6
f 336/3/6 332/3/6 337/3/6
f 337/1/6 333/1/6 338/1/6
f 339/3/6 340/3/6 343/3/6
f 340/1/6 341/1/6 344/1/6
f 343/3/6 340/3/6 344/3/6
f 341/3/6 342/3/6 345/3/6
f 344/1/6 341/1/6 345/1/6
f 345/3/6 342/3/6 346/3/6
f 343/1/6 344/1/6 347/1/6
f 347/1/6 344/1/6 348/1/6
f 345/1/6 346/1/6 349/1/6
f 349/1/6 346/1/6 350/1/6
f 347/3/6 348/3/6 351/3/6
f 348/1/6 349/1/6 352/1/6
f 351/3/6 348/3/6 352/3/6
f 349/3/6 350/3/6 353/3/6
f 352/1/6 349/1/6 353/1/6
f 353/3/6 350/3/6 354/3/6
f 355/2/6 356/2/6 359/2/6
f 359/2/6 356/2/6 360/2/6
f 360/2/6 356/2/6 361/2/6
f 357/2/6 358/2/6 362/2/6
f 362/2/6 358/2/6 363/2/6
f 359/2/6 360/2/6 364/2/6
f 364/2/6 360/2/6 365/2/6
f 361/2/6 356/2/6 366/2/6
f 364/2/6 365/2/6 367/2/6
f 365/2/6 366/2/6 367/2/6
f 366/2/6 356/2/6 368/2/6
f 367/2/6 366/2/6 368/2/6
f 369/2/6 370/2/6 371/2/6
f 371/2/6 370/2/6 372/2/6
