# MagicaVoxel @ Ephtracy

# group
g hotdog

# material
mtllib hotdog.mtl
usemtl palette

# normals
vn -1 0 0
vn 1 0 0
vn 0 0 1
vn 0 0 -1
vn 0 -1 0
vn 0 1 0

# texcoords
vt 0.951172 0.5
vt 0.970703 0.5
vt 0.974609 0.5
vt 0.978516 0.5
vt 0.982422 0.5

# verts
v -3 1 6
v -3 1 -6
v -3 5 6
v -3 5 -6
v -2 0 6
v -2 0 -6
v -2 1 6
v -2 1 -6
v -1 2 9
v -1 2 6
v -1 2 -6
v -1 2 -9
v -1 4 9
v -1 4 6
v -1 4 -6
v -1 4 -9
v 0 4 1
v 0 4 -0
v 0 4 -1
v 0 5 1
v 0 5 -0
v 0 5 -1
v 1 4 6
v 1 4 5
v 1 4 -2
v 1 4 -4
v 1 4 -5
v 1 4 -6
v 1 5 6
v 1 5 5
v 1 5 -2
v 1 5 -4
v 1 5 -5
v 1 5 -6
v -1 4 6
v -1 4 5
v -1 4 1
v -1 4 -1
v -1 4 -2
v -1 4 -3
v -1 5 6
v -1 5 5
v -1 5 1
v -1 5 -1
v -1 5 -2
v -1 5 -3
v 0 4 -3
v 0 4 -4
v 0 4 -5
v 0 4 -6
v 0 5 -3
v 0 5 -4
v 0 5 -5
v 0 5 -6
v 1 2 9
v 1 2 6
v 1 2 -6
v 1 2 -9
v 1 4 9
v 1 4 6
v 1 4 -6
v 1 4 -9
v 2 0 6
v 2 0 -6
v 2 1 6
v 2 1 -6
v 3 1 6
v 3 1 -6
v 3 5 6
v 3 5 -6
v -1 2 9
v -1 4 9
v 1 2 9
v 1 4 9
v -3 1 6
v -3 5 6
v -2 0 6
v -2 1 6
v -1 2 6
v -1 4 6
v -1 5 6
v 1 2 6
v 1 4 6
v 1 5 6
v 2 0 6
v 2 1 6
v 3 1 6
v 3 5 6
v -1 4 5
v -1 5 5
v 0 4 5
v 0 5 5
v 1 4 5
v 1 5 5
v -1 4 -1
v -1 5 -1
v 0 4 -1
v 0 5 -1
v -1 4 -3
v -1 5 -3
v 0 4 -3
v 0 5 -3
v 0 4 -4
v 0 5 -4
v 1 4 -4
v 1 5 -4
v -1 4 1
v -1 5 1
v 0 4 1
v 0 5 1
v -1 4 -2
v -1 5 -2
v 0 4 -2
v 0 5 -2
v 1 4 -2
v 1 5 -2
v 0 4 -5
v 0 5 -5
v 1 4 -5
v 1 5 -5
v -3 1 -6
v -3 5 -6
v -2 0 -6
v -2 1 -6
v -1 2 -6
v -1 4 -6
v -1 5 -6
v 0 4 -6
v 0 5 -6
v 1 2 -6
v 1 4 -6
v 1 5 -6
v 2 0 -6
v 2 1 -6
v 3 1 -6
v 3 5 -6
v -1 2 -9
v -1 4 -9
v 1 2 -9
v 1 4 -9
v -2 0 6
v 2 0 6
v -2 0 -6
v 2 0 -6
v -3 1 6
v -2 1 6
v 2 1 6
v 3 1 6
v -3 1 -6
v -2 1 -6
v 2 1 -6
v 3 1 -6
v -1 2 9
v 1 2 9
v -1 2 6
v 1 2 6
v -1 2 -6
v 1 2 -6
v -1 2 -9
v 1 2 -9
v -1 4 9
v 1 4 9
v -1 4 6
v 1 4 6
v -1 4 5
v 0 4 5
v 1 4 5
v -1 4 1
v 0 4 1
v 0 4 -0
v -1 4 -1
v 0 4 -1
v -1 4 -2
v 0 4 -2
v 1 4 -2
v -1 4 -3
v 0 4 -3
v 0 4 -4
v 1 4 -4
v 0 4 -5
v 1 4 -5
v -1 4 -6
v 0 4 -6
v 1 4 -6
v -1 4 -9
v 1 4 -9
v -3 5 6
v -1 5 6
v 1 5 6
v 3 5 6
v -1 5 5
v 0 5 5
v 1 5 5
v -1 5 4
v 0 5 4
v -1 5 3
v 0 5 3
v -1 5 2
v 0 5 2
v 1 5 2
v -1 5 1
v 0 5 1
v 0 5 -0
v 1 5 -0
v -1 5 -1
v 0 5 -1
v 1 5 -1
v -1 5 -2
v 0 5 -2
v 1 5 -2
v -1 5 -3
v 0 5 -3
v -1 5 -4
v 0 5 -4
v 1 5 -4
v -1 5 -5
v 0 5 -5
v 1 5 -5
v -3 5 -6
v -1 5 -6
v 0 5 -6
v 1 5 -6
v 3 5 -6

# faces
f 3/2/1 2/2/1 1/2/1
f 4/2/1 2/2/1 3/2/1
f 7/2/1 6/2/1 5/2/1
f 8/2/1 6/2/1 7/2/1
f 13/3/1 10/3/1 9/3/1
f 14/3/1 10/3/1 13/3/1
f 15/3/1 12/3/1 11/3/1
f 16/3/1 12/3/1 15/3/1
f 20/5/1 18/5/1 17/5/1
f 21/1/1 19/1/1 18/1/1
f 21/5/1 18/5/1 20/5/1
f 22/1/1 19/1/1 21/1/1
f 29/2/1 24/2/1 23/2/1
f 30/2/1 24/2/1 29/2/1
f 31/2/1 26/2/1 25/2/1
f 32/2/1 26/2/1 31/2/1
f 33/2/1 28/2/1 27/2/1
f 34/2/1 28/2/1 33/2/1
f 35/2/2 36/2/2 41/2/2
f 41/2/2 36/2/2 42/2/2
f 37/2/2 38/2/2 43/2/2
f 43/2/2 38/2/2 44/2/2
f 39/2/2 40/2/2 45/2/2
f 45/2/2 40/2/2 46/2/2
f 47/5/2 48/5/2 51/5/2
f 51/5/2 48/5/2 52/5/2
f 49/4/2 50/4/2 53/4/2
f 53/4/2 50/4/2 54/4/2
f 55/3/2 56/3/2 59/3/2
f 59/3/2 56/3/2 60/3/2
f 57/3/2 58/3/2 61/3/2
f 61/3/2 58/3/2 62/3/2
f 63/2/2 64/2/2 65/2/2
f 65/2/2 64/2/2 66/2/2
f 67/2/2 68/2/2 69/2/2
f 69/2/2 68/2/2 70/2/2
f 73/3/3 72/3/3 71/3/3
f 74/3/3 72/3/3 73/3/3
f 78/2/3 76/2/3 75/2/3
f 79/2/3 76/2/3 78/2/3
f 79/2/3 78/2/3 77/2/3
f 80/2/3 76/2/3 79/2/3
f 81/2/3 76/2/3 80/2/3
f 82/2/3 79/2/3 77/2/3
f 85/2/3 82/2/3 77/2/3
f 85/2/3 84/2/3 83/2/3
f 85/2/3 83/2/3 82/2/3
f 86/2/3 84/2/3 85/2/3
f 87/2/3 84/2/3 86/2/3
f 88/2/3 84/2/3 87/2/3
f 91/5/3 90/5/3 89/5/3
f 92/5/3 90/5/3 91/5/3
f 93/4/3 92/4/3 91/4/3
f 94/4/3 92/4/3 93/4/3
f 97/5/3 96/5/3 95/5/3
f 98/5/3 96/5/3 97/5/3
f 101/5/3 100/5/3 99/5/3
f 102/5/3 100/5/3 101/5/3
f 105/4/3 104/4/3 103/4/3
f 106/4/3 104/4/3 105/4/3
f 107/4/4 108/4/4 109/4/4
f 109/4/4 108/4/4 110/4/4
f 111/5/4 112/5/4 113/5/4
f 113/5/4 112/5/4 114/5/4
f 113/4/4 114/4/4 115/4/4
f 115/4/4 114/4/4 116/4/4
f 117/4/4 118/4/4 119/4/4
f 119/4/4 118/4/4 120/4/4
f 121/2/4 122/2/4 124/2/4
f 124/2/4 122/2/4 125/2/4
f 123/2/4 124/2/4 125/2/4
f 125/2/4 122/2/4 126/2/4
f 126/2/4 122/2/4 127/2/4
f 126/4/4 127/4/4 128/4/4
f 128/4/4 127/4/4 129/4/4
f 123/2/4 125/2/4 130/2/4
f 123/2/4 130/2/4 133/2/4
f 131/2/4 132/2/4 133/2/4
f 130/2/4 131/2/4 133/2/4
f 133/2/4 132/2/4 134/2/4
f 134/2/4 132/2/4 135/2/4
f 135/2/4 132/2/4 136/2/4
f 137/3/4 138/3/4 139/3/4
f 139/3/4 138/3/4 140/3/4
f 143/2/5 142/2/5 141/2/5
f 144/2/5 142/2/5 143/2/5
f 149/2/5 146/2/5 145/2/5
f 150/2/5 146/2/5 149/2/5
f 151/2/5 148/2/5 147/2/5
f 152/2/5 148/2/5 151/2/5
f 155/3/5 154/3/5 153/3/5
f 156/3/5 154/3/5 155/3/5
f 159/3/5 158/3/5 157/3/5
f 160/3/5 158/3/5 159/3/5
f 161/3/6 162/3/6 163/3/6
f 163/3/6 162/3/6 164/3/6
f 163/3/6 164/3/6 165/3/6
f 165/3/6 164/3/6 166/3/6
f 166/3/6 164/3/6 167/3/6
f 168/3/6 169/3/6 170/3/6
f 168/3/6 170/3/6 171/3/6
f 171/3/6 170/3/6 172/3/6
f 173/3/6 174/3/6 176/3/6
f 174/3/6 175/3/6 176/3/6
f 176/3/6 175/3/6 177/3/6
f 177/3/6 175/3/6 178/3/6
f 178/3/6 175/3/6 179/3/6
f 180/3/6 181/3/6 183/3/6
f 183/3/6 181/3/6 184/3/6
f 182/3/6 183/3/6 185/3/6
f 183/3/6 184/3/6 185/3/6
f 185/3/6 184/3/6 186/3/6
f 187/2/6 188/2/6 191/2/6
f 189/2/6 190/2/6 193/2/6
f 191/5/6 192/5/6 194/5/6
f 187/2/6 191/2/6 194/2/6
f 192/4/6 193/4/6 195/4/6
f 194/5/6 192/5/6 195/5/6
f 187/2/6 194/2/6 196/2/6
f 194/1/6 195/1/6 196/1/6
f 195/4/6 193/4/6 197/4/6
f 196/1/6 195/1/6 197/1/6
f 187/2/6 196/2/6 198/2/6
f 196/5/6 197/5/6 198/5/6
f 197/4/6 193/4/6 199/4/6
f 198/5/6 197/5/6 199/5/6
f 193/2/6 190/2/6 200/2/6
f 199/4/6 193/4/6 200/4/6
f 187/2/6 198/2/6 201/2/6
f 198/4/6 199/4/6 201/4/6
f 199/5/6 200/5/6 202/5/6
f 201/4/6 199/4/6 202/4/6
f 202/5/6 200/5/6 203/5/6
f 200/2/6 190/2/6 204/2/6
f 203/5/6 200/5/6 204/5/6
f 187/2/6 201/2/6 205/2/6
f 203/1/6 204/1/6 206/1/6
f 204/2/6 190/2/6 207/2/6
f 206/1/6 204/1/6 207/1/6
f 205/5/6 206/5/6 208/5/6
f 187/2/6 205/2/6 208/2/6
f 206/4/6 207/4/6 209/4/6
f 208/5/6 206/5/6 209/5/6
f 207/2/6 190/2/6 210/2/6
f 209/4/6 207/4/6 210/4/6
f 187/2/6 208/2/6 211/2/6
f 187/2/6 211/2/6 213/2/6
f 211/5/6 212/5/6 213/5/6
f 213/5/6 212/5/6 214/5/6
f 210/2/6 190/2/6 215/2/6
f 213/1/6 214/1/6 216/1/6
f 187/2/6 213/2/6 216/2/6
f 214/4/6 215/4/6 217/4/6
f 216/1/6 214/1/6 217/1/6
f 215/2/6 190/2/6 218/2/6
f 217/4/6 215/4/6 218/4/6
f 187/2/6 216/2/6 219/2/6
f 216/4/6 217/4/6 220/4/6
f 219/2/6 216/2/6 220/2/6
f 220/4/6 217/4/6 221/4/6
f 218/2/6 190/2/6 222/2/6
f 222/2/6 190/2/6 223/2/6
