# MagicaVoxel @ Ephtracy

# group
g MAC 1

# material
mtllib MAC 1.mtl
usemtl palette

# normals
vn -1 0 0
vn 1 0 0
vn 0 0 1
vn 0 0 -1
vn 0 -1 0
vn 0 1 0

# texcoords
vt 0.939453 0.5
vt 0.970703 0.5
vt 0.978516 0.5

# verts
v -21 0 29
v -21 0 -29
v -21 2 6
v -21 2 -7
v -21 3 9
v -21 3 6
v -21 3 5
v -21 3 -6
v -21 3 -7
v -21 3 -9
v -21 4 8
v -21 4 5
v -21 4 -6
v -21 4 -8
v -21 5 29
v -21 5 9
v -21 5 8
v -21 5 -8
v -21 5 -9
v -21 5 -29
v -21 6 29
v -21 6 -29
v -21 7 29
v -21 7 -29
v -20 0 30
v -20 0 29
v -20 0 -29
v -20 0 -30
v -20 3 5
v -20 3 -6
v -20 4 8
v -20 4 5
v -20 4 -6
v -20 4 -8
v -20 5 30
v -20 5 29
v -20 5 8
v -20 5 -8
v -20 5 -29
v -20 5 -30
v -20 6 30
v -20 6 29
v -20 6 -29
v -20 6 -30
v -20 7 30
v -20 7 29
v -20 7 -29
v -20 7 -30
v -19 0 31
v -19 0 30
v -19 0 -30
v -19 0 -31
v -19 5 31
v -19 5 30
v -19 5 -30
v -19 5 -31
v -19 6 31
v -19 6 30
v -19 6 -30
v -19 6 -31
v -19 7 31
v -19 7 30
v -19 7 -30
v -19 7 -31
v -18 0 32
v -18 0 31
v -18 0 -31
v -18 0 -32
v -18 5 32
v -18 5 31
v -18 5 -31
v -18 5 -32
v -18 6 32
v -18 6 31
v -18 6 -31
v -18 6 -32
v -18 7 32
v -18 7 31
v -18 7 -31
v -18 7 -32
v -17 0 33
v -17 0 32
v -17 0 -32
v -17 0 -33
v -17 5 33
v -17 5 32
v -17 5 -32
v -17 5 -33
v -17 6 33
v -17 6 32
v -17 6 -32
v -17 6 -33
v -17 7 33
v -17 7 32
v -17 7 -32
v -17 7 -33
v -2 2 -32
v -2 2 -33
v -2 3 -32
v -2 3 -33
v -3 2 -32
v -3 2 -33
v -3 3 -32
v -3 3 -33
v 18 0 33
v 18 0 32
v 18 0 -32
v 18 0 -33
v 18 5 33
v 18 5 32
v 18 5 -32
v 18 5 -33
v 18 6 33
v 18 6 32
v 18 6 -32
v 18 6 -33
v 18 7 33
v 18 7 32
v 18 7 -32
v 18 7 -33
v 19 0 32
v 19 0 31
v 19 0 -31
v 19 0 -32
v 19 5 32
v 19 5 31
v 19 5 -31
v 19 5 -32
v 19 6 32
v 19 6 31
v 19 6 -31
v 19 6 -32
v 19 7 32
v 19 7 31
v 19 7 -31
v 19 7 -32
v 20 0 31
v 20 0 30
v 20 0 -30
v 20 0 -31
v 20 5 31
v 20 5 30
v 20 5 -30
v 20 5 -31
v 20 6 31
v 20 6 30
v 20 6 -30
v 20 6 -31
v 20 7 31
v 20 7 30
v 20 7 -30
v 20 7 -31
v 21 0 30
v 21 0 -30
v 21 5 30
v 21 5 -30
v 21 6 30
v 21 6 -30
v 21 7 30
v 21 7 -30
v -17 0 33
v -17 5 33
v -17 6 33
v -17 7 33
v 18 0 33
v 18 5 33
v 18 6 33
v 18 7 33
v -18 0 32
v -18 5 32
v -18 6 32
v -18 7 32
v -17 0 32
v -17 5 32
v -17 6 32
v -17 7 32
v 18 0 32
v 18 5 32
v 18 6 32
v 18 7 32
v 19 0 32
v 19 5 32
v 19 6 32
v 19 7 32
v -19 0 31
v -19 5 31
v -19 6 31
v -19 7 31
v -18 0 31
v -18 5 31
v -18 6 31
v -18 7 31
v 19 0 31
v 19 5 31
v 19 6 31
v 19 7 31
v 20 0 31
v 20 5 31
v 20 6 31
v 20 7 31
v -20 0 30
v -20 5 30
v -20 6 30
v -20 7 30
v -19 0 30
v -19 5 30
v -19 6 30
v -19 7 30
v 20 0 30
v 20 5 30
v 20 6 30
v 20 7 30
v 21 0 30
v 21 5 30
v 21 6 30
v 21 7 30
v -21 0 29
v -21 5 29
v -21 6 29
v -21 7 29
v -20 0 29
v -20 5 29
v -20 6 29
v -20 7 29
v -21 3 -6
v -21 4 -6
v -20 3 -6
v -20 4 -6
v -21 4 -8
v -21 5 -8
v -20 4 -8
v -20 5 -8
v -21 4 8
v -21 5 8
v -20 4 8
v -20 5 8
v -21 3 5
v -21 4 5
v -20 3 5
v -20 4 5
v -21 0 -29
v -21 5 -29
v -21 6 -29
v -21 7 -29
v -20 0 -29
v -20 5 -29
v -20 6 -29
v -20 7 -29
v -20 0 -30
v -20 5 -30
v -20 6 -30
v -20 7 -30
v -19 0 -30
v -19 5 -30
v -19 6 -30
v -19 7 -30
v 20 0 -30
v 20 5 -30
v 20 6 -30
v 20 7 -30
v 21 0 -30
v 21 5 -30
v 21 6 -30
v 21 7 -30
v -19 0 -31
v -19 5 -31
v -19 6 -31
v -19 7 -31
v -18 0 -31
v -18 5 -31
v -18 6 -31
v -18 7 -31
v 19 0 -31
v 19 5 -31
v 19 6 -31
v 19 7 -31
v 20 0 -31
v 20 5 -31
v 20 6 -31
v 20 7 -31
v -18 0 -32
v -18 5 -32
v -18 6 -32
v -18 7 -32
v -17 0 -32
v -17 5 -32
v -17 6 -32
v -17 7 -32
v -3 2 -32
v -3 3 -32
v -2 2 -32
v -2 3 -32
v 18 0 -32
v 18 5 -32
v 18 6 -32
v 18 7 -32
v 19 0 -32
v 19 5 -32
v 19 6 -32
v 19 7 -32
v -17 0 -33
v -17 5 -33
v -17 6 -33
v -17 7 -33
v -4 1 -33
v -4 4 -33
v -3 2 -33
v -3 3 -33
v -2 2 -33
v -2 3 -33
v -1 1 -33
v -1 4 -33
v 1 1 -33
v 1 4 -33
v 2 2 -33
v 2 3 -33
v 6 2 -33
v 6 3 -33
v 7 1 -33
v 7 4 -33
v 9 1 -33
v 9 4 -33
v 10 2 -33
v 10 3 -33
v 14 2 -33
v 14 3 -33
v 15 1 -33
v 15 4 -33
v 18 0 -33
v 18 5 -33
v 18 6 -33
v 18 7 -33
v -17 0 33
v 18 0 33
v -18 0 32
v -17 0 32
v 18 0 32
v 19 0 32
v -19 0 31
v -18 0 31
v 19 0 31
v 20 0 31
v -20 0 30
v -19 0 30
v 20 0 30
v 21 0 30
v -21 0 29
v -20 0 29
v -21 0 -29
v -20 0 -29
v -20 0 -30
v -19 0 -30
v 20 0 -30
v 21 0 -30
v -19 0 -31
v -18 0 -31
v 19 0 -31
v 20 0 -31
v -18 0 -32
v -17 0 -32
v 18 0 -32
v 19 0 -32
v -17 0 -33
v 18 0 -33
v -3 3 -32
v -2 3 -32
v -3 3 -33
v -2 3 -33
v -21 5 8
v -20 5 8
v -21 5 -8
v -20 5 -8
v -3 2 -32
v -2 2 -32
v -3 2 -33
v -2 2 -33
v -21 3 5
v -20 3 5
v -21 3 -6
v -20 3 -6
v -21 4 8
v -20 4 8
v -21 4 5
v -20 4 5
v -21 4 -6
v -20 4 -6
v -21 4 -8
v -20 4 -8
v -17 7 33
v 18 7 33
v -18 7 32
v -17 7 32
v 18 7 32
v 19 7 32
v -19 7 31
v -18 7 31
v 19 7 31
v 20 7 31
v -20 7 30
v -19 7 30
v 20 7 30
v 21 7 30
v -21 7 29
v -20 7 29
v -5 7 10
v 2 7 10
v -7 7 9
v -5 7 9
v 2 7 9
v 5 7 9
v -8 7 8
v -7 7 8
v 5 7 8
v 6 7 8
v 6 7 7
v 7 7 7
v -9 7 6
v -8 7 6
v 7 7 6
v 8 7 6
v 8 7 5
v 9 7 5
v -9 7 2
v -8 7 2
v 8 7 2
v 9 7 2
v -11 7 1
v -9 7 1
v -12 7 -0
v -11 7 -0
v -13 7 -1
v -12 7 -1
v -10 7 -1
v -9 7 -1
v -14 7 -2
v -13 7 -2
v -9 7 -2
v -8 7 -2
v 8 7 -2
v 9 7 -2
v -12 7 -3
v -10 7 -3
v -14 7 -4
v -12 7 -4
v 8 7 -5
v 9 7 -5
v -9 7 -6
v -8 7 -6
v -5 7 -6
v 0 7 -6
v 7 7 -6
v 8 7 -6
v -6 7 -7
v -5 7 -7
v 0 7 -7
v 1 7 -7
v 6 7 -7
v 7 7 -7
v -8 7 -8
v -6 7 -8
v 1 7 -8
v 2 7 -8
v 4 7 -8
v 6 7 -8
v 2 7 -9
v 4 7 -9
v -21 7 -29
v -20 7 -29
v -20 7 -30
v -19 7 -30
v 20 7 -30
v 21 7 -30
v -19 7 -31
v -18 7 -31
v 19 7 -31
v 20 7 -31
v -18 7 -32
v -17 7 -32
v 18 7 -32
v 19 7 -32
v -17 7 -33
v 18 7 -33

# faces
f 3/1/1 2/1/1 1/1/1
f 4/1/1 2/1/1 3/1/1
f 5/1/1 3/1/1 1/1/1
f 6/3/1 4/3/1 3/3/1
f 6/1/1 3/1/1 5/1/1
f 7/3/1 4/3/1 6/3/1
f 8/3/1 4/3/1 7/3/1
f 9/1/1 2/1/1 4/1/1
f 9/3/1 4/3/1 8/3/1
f 10/1/1 2/1/1 9/1/1
f 11/3/1 6/3/1 5/3/1
f 11/3/1 7/3/1 6/3/1
f 12/3/1 7/3/1 11/3/1
f 13/3/1 10/3/1 9/3/1
f 13/3/1 9/3/1 8/3/1
f 14/3/1 10/3/1 13/3/1
f 15/1/1 5/1/1 1/1/1
f 16/3/1 11/3/1 5/3/1
f 16/1/1 5/1/1 15/1/1
f 17/3/1 11/3/1 16/3/1
f 18/3/1 10/3/1 14/3/1
f 19/1/1 2/1/1 10/1/1
f 19/3/1 10/3/1 18/3/1
f 20/1/1 2/1/1 19/1/1
f 21/3/1 18/3/1 17/3/1
f 21/3/1 17/3/1 16/3/1
f 21/3/1 20/3/1 19/3/1
f 21/3/1 19/3/1 18/3/1
f 21/3/1 16/3/1 15/3/1
f 22/3/1 20/3/1 21/3/1
f 23/1/1 22/1/1 21/1/1
f 24/1/1 22/1/1 23/1/1
f 32/3/1 30/3/1 29/3/1
f 33/3/1 30/3/1 32/3/1
f 35/1/1 26/1/1 25/1/1
f 36/1/1 26/1/1 35/1/1
f 37/3/1 34/3/1 33/3/1
f 37/3/1 32/3/1 31/3/1
f 37/3/1 33/3/1 32/3/1
f 38/3/1 34/3/1 37/3/1
f 39/1/1 28/1/1 27/1/1
f 40/1/1 28/1/1 39/1/1
f 41/3/1 36/3/1 35/3/1
f 42/3/1 36/3/1 41/3/1
f 43/3/1 40/3/1 39/3/1
f 44/3/1 40/3/1 43/3/1
f 45/1/1 42/1/1 41/1/1
f 46/1/1 42/1/1 45/1/1
f 47/1/1 44/1/1 43/1/1
f 48/1/1 44/1/1 47/1/1
f 53/1/1 50/1/1 49/1/1
f 54/1/1 50/1/1 53/1/1
f 55/1/1 52/1/1 51/1/1
f 56/1/1 52/1/1 55/1/1
f 57/3/1 54/3/1 53/3/1
f 58/3/1 54/3/1 57/3/1
f 59/3/1 56/3/1 55/3/1
f 60/3/1 56/3/1 59/3/1
f 61/1/1 58/1/1 57/1/1
f 62/1/1 58/1/1 61/1/1
f 63/1/1 60/1/1 59/1/1
f 64/1/1 60/1/1 63/1/1
f 69/1/1 66/1/1 65/1/1
f 70/1/1 66/1/1 69/1/1
f 71/1/1 68/1/1 67/1/1
f 72/1/1 68/1/1 71/1/1
f 73/3/1 70/3/1 69/3/1
f 74/3/1 70/3/1 73/3/1
f 75/3/1 72/3/1 71/3/1
f 76/3/1 72/3/1 75/3/1
f 77/1/1 74/1/1 73/1/1
f 78/1/1 74/1/1 77/1/1
f 79/1/1 76/1/1 75/1/1
f 80/1/1 76/1/1 79/1/1
f 85/1/1 82/1/1 81/1/1
f 86/1/1 82/1/1 85/1/1
f 87/1/1 84/1/1 83/1/1
f 88/1/1 84/1/1 87/1/1
f 89/3/1 86/3/1 85/3/1
f 90/3/1 86/3/1 89/3/1
f 91/3/1 88/3/1 87/3/1
f 92/3/1 88/3/1 91/3/1
f 93/1/1 90/1/1 89/1/1
f 94/1/1 90/1/1 93/1/1
f 95/1/1 92/1/1 91/1/1
f 96/1/1 92/1/1 95/1/1
f 99/3/1 98/3/1 97/3/1
f 100/3/1 98/3/1 99/3/1
f 101/3/2 102/3/2 103/3/2
f 103/3/2 102/3/2 104/3/2
f 105/1/2 106/1/2 109/1/2
f 109/1/2 106/1/2 110/1/2
f 107/1/2 108/1/2 111/1/2
f 111/1/2 108/1/2 112/1/2
f 109/3/2 110/3/2 113/3/2
f 113/3/2 110/3/2 114/3/2
f 111/3/2 112/3/2 115/3/2
f 115/3/2 112/3/2 116/3/2
f 113/1/2 114/1/2 117/1/2
f 117/1/2 114/1/2 118/1/2
f 115/1/2 116/1/2 119/1/2
f 119/1/2 116/1/2 120/1/2
f 121/1/2 122/1/2 125/1/2
f 125/1/2 122/1/2 126/1/2
f 123/1/2 124/1/2 127/1/2
f 127/1/2 124/1/2 128/1/2
f 125/3/2 126/3/2 129/3/2
f 129/3/2 126/3/2 130/3/2
f 127/3/2 128/3/2 131/3/2
f 131/3/2 128/3/2 132/3/2
f 129/1/2 130/1/2 133/1/2
f 133/1/2 130/1/2 134/1/2
f 131/1/2 132/1/2 135/1/2
f 135/1/2 132/1/2 136/1/2
f 137/1/2 138/1/2 141/1/2
f 141/1/2 138/1/2 142/1/2
f 139/1/2 140/1/2 143/1/2
f 143/1/2 140/1/2 144/1/2
f 141/3/2 142/3/2 145/3/2
f 145/3/2 142/3/2 146/3/2
f 143/3/2 144/3/2 147/3/2
f 147/3/2 144/3/2 148/3/2
f 145/1/2 146/1/2 149/1/2
f 149/1/2 146/1/2 150/1/2
f 147/1/2 148/1/2 151/1/2
f 151/1/2 148/1/2 152/1/2
f 153/1/2 154/1/2 155/1/2
f 155/1/2 154/1/2 156/1/2
f 155/3/2 156/3/2 157/3/2
f 157/3/2 156/3/2 158/3/2
f 157/1/2 158/1/2 159/1/2
f 159/1/2 158/1/2 160/1/2
f 165/1/3 162/1/3 161/1/3
f 166/3/3 163/3/3 162/3/3
f 166/1/3 162/1/3 165/1/3
f 167/1/3 164/1/3 163/1/3
f 167/3/3 163/3/3 166/3/3
f 168/1/3 164/1/3 167/1/3
f 173/1/3 170/1/3 169/1/3
f 174/3/3 171/3/3 170/3/3
f 174/1/3 170/1/3 173/1/3
f 175/1/3 172/1/3 171/1/3
f 175/3/3 171/3/3 174/3/3
f 176/1/3 172/1/3 175/1/3
f 181/1/3 178/1/3 177/1/3
f 182/3/3 179/3/3 178/3/3
f 182/1/3 178/1/3 181/1/3
f 183/1/3 180/1/3 179/1/3
f 183/3/3 179/3/3 182/3/3
f 184/1/3 180/1/3 183/1/3
f 189/1/3 186/1/3 185/1/3
f 190/3/3 187/3/3 186/3/3
f 190/1/3 186/1/3 189/1/3
f 191/1/3 188/1/3 187/1/3
f 191/3/3 187/3/3 190/3/3
f 192/1/3 188/1/3 191/1/3
f 197/1/3 194/1/3 193/1/3
f 198/3/3 195/3/3 194/3/3
f 198/1/3 194/1/3 197/1/3
f 199/1/3 196/1/3 195/1/3
f 199/3/3 195/3/3 198/3/3
f 200/1/3 196/1/3 199/1/3
f 205/1/3 202/1/3 201/1/3
f 206/3/3 203/3/3 202/3/3
f 206/1/3 202/1/3 205/1/3
f 207/1/3 204/1/3 203/1/3
f 207/3/3 203/3/3 206/3/3
f 208/1/3 204/1/3 207/1/3
f 213/1/3 210/1/3 209/1/3
f 214/3/3 211/3/3 210/3/3
f 214/1/3 210/1/3 213/1/3
f 215/1/3 212/1/3 211/1/3
f 215/3/3 211/3/3 214/3/3
f 216/1/3 212/1/3 215/1/3
f 221/1/3 218/1/3 217/1/3
f 222/3/3 219/3/3 218/3/3
f 222/1/3 218/1/3 221/1/3
f 223/1/3 220/1/3 219/1/3
f 223/3/3 219/3/3 222/3/3
f 224/1/3 220/1/3 223/1/3
f 227/3/3 226/3/3 225/3/3
f 228/3/3 226/3/3 227/3/3
f 231/3/3 230/3/3 229/3/3
f 232/3/3 230/3/3 231/3/3
f 233/3/4 234/3/4 235/3/4
f 235/3/4 234/3/4 236/3/4
f 237/3/4 238/3/4 239/3/4
f 239/3/4 238/3/4 240/3/4
f 241/1/4 242/1/4 245/1/4
f 242/3/4 243/3/4 246/3/4
f 245/1/4 242/1/4 246/1/4
f 243/1/4 244/1/4 247/1/4
f 246/3/4 243/3/4 247/3/4
f 247/1/4 244/1/4 248/1/4
f 249/1/4 250/1/4 253/1/4
f 250/3/4 251/3/4 254/3/4
f 253/1/4 250/1/4 254/1/4
f 251/1/4 252/1/4 255/1/4
f 254/3/4 251/3/4 255/3/4
f 255/1/4 252/1/4 256/1/4
f 257/1/4 258/1/4 261/1/4
f 258/3/4 259/3/4 262/3/4
f 261/1/4 258/1/4 262/1/4
f 259/1/4 260/1/4 263/1/4
f 262/3/4 259/3/4 263/3/4
f 263/1/4 260/1/4 264/1/4
f 265/1/4 266/1/4 269/1/4
f 266/3/4 267/3/4 270/3/4
f 269/1/4 266/1/4 270/1/4
f 267/1/4 268/1/4 271/1/4
f 270/3/4 267/3/4 271/3/4
f 271/1/4 268/1/4 272/1/4
f 273/1/4 274/1/4 277/1/4
f 274/3/4 275/3/4 278/3/4
f 277/1/4 274/1/4 278/1/4
f 275/1/4 276/1/4 279/1/4
f 278/3/4 275/3/4 279/3/4
f 279/1/4 276/1/4 280/1/4
f 281/1/4 282/1/4 285/1/4
f 282/3/4 283/3/4 286/3/4
f 285/1/4 282/1/4 286/1/4
f 283/1/4 284/1/4 287/1/4
f 286/3/4 283/3/4 287/3/4
f 287/1/4 284/1/4 288/1/4
f 289/1/4 290/1/4 291/1/4
f 291/1/4 290/1/4 292/1/4
f 293/1/4 294/1/4 297/1/4
f 294/3/4 295/3/4 298/3/4
f 297/1/4 294/1/4 298/1/4
f 295/1/4 296/1/4 299/1/4
f 298/3/4 295/3/4 299/3/4
f 299/1/4 296/1/4 300/1/4
f 301/1/4 302/1/4 305/1/4
f 305/1/4 302/1/4 306/1/4
f 305/3/4 306/3/4 307/3/4
f 307/3/4 306/3/4 308/3/4
f 305/3/4 307/3/4 309/3/4
f 308/3/4 306/3/4 310/3/4
f 301/1/4 305/1/4 311/1/4
f 309/3/4 310/3/4 311/3/4
f 305/3/4 309/3/4 311/3/4
f 310/3/4 306/3/4 312/3/4
f 311/3/4 310/3/4 312/3/4
f 306/1/4 302/1/4 312/1/4
f 301/1/4 311/1/4 313/1/4
f 311/1/4 312/1/4 313/1/4
f 312/1/4 302/1/4 314/1/4
f 313/1/4 312/1/4 314/1/4
f 313/3/4 314/3/4 315/3/4
f 315/3/4 314/3/4 316/3/4
f 313/3/4 315/3/4 317/3/4
f 315/1/4 316/1/4 317/1/4
f 316/3/4 314/3/4 318/3/4
f 317/1/4 316/1/4 318/1/4
f 301/1/4 313/1/4 319/1/4
f 313/3/4 317/3/4 319/3/4
f 317/3/4 318/3/4 319/3/4
f 318/3/4 314/3/4 320/3/4
f 319/3/4 318/3/4 320/3/4
f 314/1/4 302/1/4 320/1/4
f 301/1/4 319/1/4 321/1/4
f 319/1/4 320/1/4 321/1/4
f 320/1/4 302/1/4 322/1/4
f 321/1/4 320/1/4 322/1/4
f 321/3/4 322/3/4 323/3/4
f 323/3/4 322/3/4 324/3/4
f 321/3/4 323/3/4 325/3/4
f 323/1/4 324/1/4 325/1/4
f 324/3/4 322/3/4 326/3/4
f 325/1/4 324/1/4 326/1/4
f 301/1/4 321/1/4 327/1/4
f 321/3/4 325/3/4 327/3/4
f 325/3/4 326/3/4 327/3/4
f 326/3/4 322/3/4 328/3/4
f 327/3/4 326/3/4 328/3/4
f 322/1/4 302/1/4 328/1/4
f 301/1/4 327/1/4 329/1/4
f 327/1/4 328/1/4 329/1/4
f 302/3/4 303/3/4 330/3/4
f 329/1/4 328/1/4 330/1/4
f 328/1/4 302/1/4 330/1/4
f 303/1/4 304/1/4 331/1/4
f 330/3/4 303/3/4 331/3/4
f 331/1/4 304/1/4 332/1/4
f 336/1/5 334/1/5 333/1/5
f 337/1/5 334/1/5 336/1/5
f 340/1/5 336/1/5 335/1/5
f 340/1/5 338/1/5 337/1/5
f 340/1/5 337/1/5 336/1/5
f 341/1/5 338/1/5 340/1/5
f 344/1/5 340/1/5 339/1/5
f 344/1/5 342/1/5 341/1/5
f 344/1/5 341/1/5 340/1/5
f 345/1/5 342/1/5 344/1/5
f 348/1/5 344/1/5 343/1/5
f 348/1/5 346/1/5 345/1/5
f 348/1/5 345/1/5 344/1/5
f 349/1/5 348/1/5 347/1/5
f 350/1/5 346/1/5 348/1/5
f 350/1/5 348/1/5 349/1/5
f 351/1/5 346/1/5 350/1/5
f 352/1/5 346/1/5 351/1/5
f 353/1/5 346/1/5 352/1/5
f 354/1/5 346/1/5 353/1/5
f 355/1/5 353/1/5 352/1/5
f 356/1/5 353/1/5 355/1/5
f 357/1/5 353/1/5 356/1/5
f 358/1/5 353/1/5 357/1/5
f 359/1/5 357/1/5 356/1/5
f 360/1/5 357/1/5 359/1/5
f 361/1/5 357/1/5 360/1/5
f 362/1/5 357/1/5 361/1/5
f 363/1/5 361/1/5 360/1/5
f 364/1/5 361/1/5 363/1/5
f 367/3/5 366/3/5 365/3/5
f 368/3/5 366/3/5 367/3/5
f 371/3/5 370/3/5 369/3/5
f 372/3/5 370/3/5 371/3/5
f 373/3/6 374/3/6 375/3/6
f 375/3/6 374/3/6 376/3/6
f 377/3/6 378/3/6 379/3/6
f 379/3/6 378/3/6 380/3/6
f 381/3/6 382/3/6 383/3/6
f 383/3/6 382/3/6 384/3/6
f 385/3/6 386/3/6 387/3/6
f 387/3/6 386/3/6 388/3/6
f 389/1/6 390/1/6 392/1/6
f 392/1/6 390/1/6 393/1/6
f 391/1/6 392/1/6 396/1/6
f 393/1/6 394/1/6 396/1/6
f 392/1/6 393/1/6 396/1/6
f 396/1/6 394/1/6 397/1/6
f 395/1/6 396/1/6 400/1/6
f 397/1/6 398/1/6 400/1/6
f 396/1/6 397/1/6 400/1/6
f 400/1/6 398/1/6 401/1/6
f 399/1/6 400/1/6 404/1/6
f 401/1/6 402/1/6 404/1/6
f 400/1/6 401/1/6 404/1/6
f 404/1/6 402/1/6 405/1/6
f 403/1/6 404/1/6 405/1/6
f 405/1/6 402/1/6 406/1/6
f 403/1/6 405/1/6 407/1/6
f 405/2/6 406/2/6 408/2/6
f 407/1/6 405/1/6 408/1/6
f 406/1/6 402/1/6 409/1/6
f 408/2/6 406/2/6 409/2/6
f 409/1/6 402/1/6 410/1/6
f 403/1/6 407/1/6 411/1/6
f 407/2/6 408/2/6 412/2/6
f 411/1/6 407/1/6 412/1/6
f 408/2/6 409/2/6 412/2/6
f 409/2/6 410/2/6 412/2/6
f 410/1/6 402/1/6 413/1/6
f 412/2/6 410/2/6 413/2/6
f 413/1/6 402/1/6 414/1/6
f 411/2/6 412/2/6 415/2/6
f 414/1/6 402/1/6 415/1/6
f 413/2/6 414/2/6 415/2/6
f 412/2/6 413/2/6 415/2/6
f 415/1/6 402/1/6 416/1/6
f 403/1/6 411/1/6 417/1/6
f 411/2/6 415/2/6 418/2/6
f 417/1/6 411/1/6 418/1/6
f 415/2/6 416/2/6 418/2/6
f 416/1/6 402/1/6 419/1/6
f 418/2/6 416/2/6 419/2/6
f 419/1/6 402/1/6 420/1/6
f 417/2/6 418/2/6 421/2/6
f 420/1/6 402/1/6 421/1/6
f 419/2/6 420/2/6 421/2/6
f 418/2/6 419/2/6 421/2/6
f 421/1/6 402/1/6 422/1/6
f 403/1/6 417/1/6 423/1/6
f 417/2/6 421/2/6 423/2/6
f 421/2/6 422/2/6 423/2/6
f 423/2/6 422/2/6 424/2/6
f 424/2/6 422/2/6 425/2/6
f 422/1/6 402/1/6 426/1/6
f 425/2/6 422/2/6 426/2/6
f 403/1/6 423/1/6 427/1/6
f 423/1/6 424/1/6 427/1/6
f 427/1/6 424/1/6 428/1/6
f 403/1/6 427/1/6 429/1/6
f 427/2/6 428/2/6 430/2/6
f 429/1/6 427/1/6 430/1/6
f 403/1/6 429/1/6 431/1/6
f 429/2/6 430/2/6 432/2/6
f 431/1/6 429/1/6 432/1/6
f 430/2/6 428/2/6 433/2/6
f 432/2/6 430/2/6 433/2/6
f 428/1/6 424/1/6 434/1/6
f 433/2/6 428/2/6 434/2/6
f 403/1/6 431/1/6 435/1/6
f 432/2/6 433/2/6 436/2/6
f 435/1/6 431/1/6 436/1/6
f 431/2/6 432/2/6 436/2/6
f 433/1/6 434/1/6 437/1/6
f 434/1/6 424/1/6 437/1/6
f 424/2/6 425/2/6 438/2/6
f 437/1/6 424/1/6 438/1/6
f 425/1/6 426/1/6 439/1/6
f 438/2/6 425/2/6 439/2/6
f 426/1/6 402/1/6 440/1/6
f 439/1/6 426/1/6 440/1/6
f 436/2/6 433/2/6 441/2/6
f 435/2/6 436/2/6 441/2/6
f 433/1/6 437/1/6 442/1/6
f 441/2/6 433/2/6 442/2/6
f 435/2/6 441/2/6 443/2/6
f 403/1/6 435/1/6 443/1/6
f 441/1/6 442/1/6 444/1/6
f 443/2/6 441/2/6 444/2/6
f 438/2/6 439/2/6 445/2/6
f 437/2/6 438/2/6 445/2/6
f 439/2/6 440/2/6 445/2/6
f 440/1/6 402/1/6 446/1/6
f 445/2/6 440/2/6 446/2/6
f 442/1/6 437/1/6 447/1/6
f 444/1/6 442/1/6 447/1/6
f 443/1/6 444/1/6 447/1/6
f 437/2/6 445/2/6 447/2/6
f 447/2/6 445/2/6 448/2/6
f 448/2/6 445/2/6 449/2/6
f 449/2/6 445/2/6 450/2/6
f 450/2/6 445/2/6 451/2/6
f 445/1/6 446/1/6 452/1/6
f 451/2/6 445/2/6 452/2/6
f 448/2/6 449/2/6 453/2/6
f 449/1/6 450/1/6 454/1/6
f 453/2/6 449/2/6 454/2/6
f 450/2/6 451/2/6 455/2/6
f 454/1/6 450/1/6 455/1/6
f 455/2/6 451/2/6 456/2/6
f 456/2/6 451/2/6 457/2/6
f 451/1/6 452/1/6 458/1/6
f 457/2/6 451/2/6 458/2/6
f 447/1/6 448/1/6 459/1/6
f 448/2/6 453/2/6 459/2/6
f 453/1/6 454/1/6 460/1/6
f 459/2/6 453/2/6 460/2/6
f 454/1/6 455/1/6 460/1/6
f 455/1/6 456/1/6 460/1/6
f 456/2/6 457/2/6 461/2/6
f 460/1/6 456/1/6 461/1/6
f 461/2/6 457/2/6 462/2/6
f 462/2/6 457/2/6 463/2/6
f 457/1/6 458/1/6 464/1/6
f 463/2/6 457/2/6 464/2/6
f 462/2/6 463/2/6 465/2/6
f 459/1/6 460/1/6 465/1/6
f 460/1/6 461/1/6 465/1/6
f 461/1/6 462/1/6 465/1/6
f 463/1/6 464/1/6 466/1/6
f 465/2/6 463/2/6 466/2/6
f 447/1/6 459/1/6 467/1/6
f 403/1/6 443/1/6 467/1/6
f 465/1/6 466/1/6 467/1/6
f 459/1/6 465/1/6 467/1/6
f 443/1/6 447/1/6 467/1/6
f 467/1/6 466/1/6 468/1/6
f 468/1/6 466/1/6 469/1/6
f 469/1/6 466/1/6 470/1/6
f 446/1/6 402/1/6 471/1/6
f 470/1/6 466/1/6 471/1/6
f 466/1/6 464/1/6 471/1/6
f 464/1/6 458/1/6 471/1/6
f 452/1/6 446/1/6 471/1/6
f 458/1/6 452/1/6 471/1/6
f 471/1/6 402/1/6 472/1/6
f 470/1/6 471/1/6 473/1/6
f 473/1/6 471/1/6 474/1/6
f 474/1/6 471/1/6 475/1/6
f 475/1/6 471/1/6 476/1/6
f 474/1/6 475/1/6 477/1/6
f 477/1/6 475/1/6 478/1/6
f 478/1/6 475/1/6 479/1/6
f 479/1/6 475/1/6 480/1/6
f 478/1/6 479/1/6 481/1/6
f 481/1/6 479/1/6 482/1/6
